<svg xmlns="http://www.w3.org/2000/svg" width="369.553" height="269.211" viewBox="0 0 369.553 269.211">
    <path id="Контур_13258" data-name="Контур 13258"
          d="M70.165-35.88q30.184,0,49.763,13.868a82.658,82.658,0,0,1,28.961,36.3q9.382,22.434,9.382,50.171a164.051,164.051,0,0,1-15.908,70.566,209.4,209.4,0,0,1-41.605,59.553q-25.7,25.7-55.882,38.75l-56.29-41.605A189.618,189.618,0,0,0,30.6,168.884,199.688,199.688,0,0,0,64.047,138.7a127.15,127.15,0,0,0,21.618-33.447L81.586,102.8A27.407,27.407,0,0,1,70.981,107.7a72.949,72.949,0,0,1-17.132,1.632q-14.684,0-29.776-7.342A65.335,65.335,0,0,1-1.217,79.962q-10.2-14.684-10.2-37.526Q-11.414,16.331.007-.8A73.938,73.938,0,0,1,30.191-26.906,91.476,91.476,0,0,1,70.165-35.88Zm199.869,0q30.184,0,49.763,13.868a82.658,82.658,0,0,1,28.961,36.3q9.382,22.434,9.382,50.171a164.05,164.05,0,0,1-15.908,70.566,209.4,209.4,0,0,1-41.605,59.553q-25.7,25.7-55.882,38.75l-56.29-41.605a189.616,189.616,0,0,0,42.013-22.842A199.692,199.692,0,0,0,263.915,138.7a127.15,127.15,0,0,0,21.618-33.447l-4.079-2.447A27.407,27.407,0,0,1,270.85,107.7a72.949,72.949,0,0,1-17.132,1.632q-14.684,0-29.776-7.342a65.336,65.336,0,0,1-25.29-22.026q-10.2-14.684-10.2-37.526,0-26.105,11.421-43.237A73.938,73.938,0,0,1,230.06-26.906,91.476,91.476,0,0,1,270.034-35.88Z"
          transform="translate(11.414 35.88)" fill="#f2f2f2" opacity="0.03"/>
</svg>
