<svg version="1.1" id="Слой_1" xmlns="http://www.w3.org/2000/svg" xmlns:xlink="http://www.w3.org/1999/xlink" x="0px"
     y="0px"
     viewBox="0 0 2340 1560" style="enable-background:new 0 0 2340 1560;" xml:space="preserve">
<style type="text/css">
	.st0{fill:url(#SVGID_1_); display: none;}
	.st1{fill:#FFFFFF; display: none;}
	.st2{fill:url(#SVGID_2_);}
	.st3{fill:url(#SVGID_3_);}
	.st4{fill:url(#SVGID_4_);}
	.st5{fill:none;stroke:url(#SVGID_5_);stroke-width:5.6861;stroke-miterlimit:10;}
	.st6{fill:none;stroke:url(#SVGID_6_);stroke-width:5.6861;stroke-miterlimit:10;}
	.st7{fill:none;stroke:url(#SVGID_7_);stroke-width:5.6861;stroke-miterlimit:10;}
	.st8{fill:none;stroke:url(#SVGID_8_);stroke-width:5.6861;stroke-miterlimit:10;}
	.st9{fill:none;stroke:url(#SVGID_9_);stroke-width:5.6861;stroke-miterlimit:10;}
	.st10{fill:none;stroke:url(#SVGID_10_);stroke-width:5.6861;stroke-miterlimit:10;}
	.st11{fill:none;stroke:url(#SVGID_11_);stroke-width:5.6861;stroke-miterlimit:10;}
	.st12{fill:none;stroke:url(#SVGID_12_);stroke-width:5.6861;stroke-miterlimit:10;}
	.st13{fill:none;stroke:url(#SVGID_13_);stroke-width:5.6861;stroke-miterlimit:10;}
	.st14{fill:url(#SVGID_14_);}
	.st15{fill:url(#SVGID_15_);}
	.st16{fill:url(#SVGID_16_);}
	.st17{fill:url(#SVGID_17_);}
	.st18{fill:url(#SVGID_18_);}
	.st19{fill:url(#SVGID_19_);}
	.st20{fill:url(#SVGID_20_);}
	.st21{fill:url(#SVGID_21_);}
	.st22{fill:url(#SVGID_22_);}
	.st23{fill:url(#SVGID_23_);}
	.st24{fill:url(#SVGID_24_);}
	.st25{fill:url(#SVGID_25_);}
	.st26{fill:url(#SVGID_26_);}
	.st27{fill:url(#SVGID_27_);}
	.st28{fill:url(#SVGID_28_);}
	.st29{fill:url(#SVGID_29_);}
	.st30{fill:url(#SVGID_30_);}
	.st31{fill:url(#SVGID_31_);}
	.st32{fill:url(#SVGID_32_);}
	.st33{fill:url(#SVGID_33_);}
	.st34{fill:url(#SVGID_34_);}
	.st35{fill:url(#SVGID_35_);}
	.st36{fill:url(#SVGID_36_);}
	.st37{fill:url(#SVGID_37_);}
	.st38{fill:url(#SVGID_38_);}
	.st39{fill:url(#SVGID_39_);}
	.st40{fill:url(#SVGID_40_);}
	.st41{fill:url(#SVGID_41_);}
	.st42{fill:url(#SVGID_42_);}
	.st43{fill:url(#SVGID_43_);}
	.st44{fill:url(#SVGID_44_);}
	.st45{fill:url(#SVGID_45_);}
	.st46{fill:url(#SVGID_46_);}
	.st47{fill:url(#SVGID_47_);}
	.st48{fill:url(#SVGID_48_);}
	.st49{fill:url(#SVGID_49_);}
	.st50{fill:url(#SVGID_50_);}
	.st51{fill:url(#SVGID_51_);}
	.st52{fill:url(#SVGID_52_);}
	.st53{fill:url(#SVGID_53_);}
	.st54{fill:url(#SVGID_54_);}
	.st55{fill:url(#SVGID_55_);}
	.st56{fill:url(#SVGID_56_);}
	.st57{fill:url(#SVGID_57_);}
	.st58{fill:url(#SVGID_58_);}
	.st59{fill:url(#SVGID_59_);}
	.st60{fill:url(#SVGID_60_);}
	.st61{fill:url(#SVGID_61_);}
	.st62{fill:url(#SVGID_62_);}
	.st63{fill:url(#SVGID_63_);}
	.st64{fill:url(#SVGID_64_);}
	.st65{fill:url(#SVGID_65_);}
	.st66{fill:url(#SVGID_66_);}
	.st67{fill:url(#SVGID_67_);}
	.st68{fill:url(#SVGID_68_);}
	.st69{fill:url(#SVGID_69_);}
	.st70{fill:url(#SVGID_70_);}
	.st71{fill:url(#SVGID_71_);}
	.st72{fill:url(#SVGID_72_);}
	.st73{fill:url(#SVGID_73_);}
	.st74{fill:url(#SVGID_74_);}
	.st75{fill:url(#SVGID_75_);}
	.st76{fill:url(#SVGID_76_);}
	.st77{fill:url(#SVGID_77_);}
	.st78{fill:url(#SVGID_78_);}
	.st79{fill:url(#SVGID_79_);}
	.st80{fill:url(#SVGID_80_);}
	.st81{fill:url(#SVGID_81_);}
	.st82{fill:url(#SVGID_82_);}
	.st83{fill:#F4A2BA;}
	.st84{fill:url(#SVGID_83_);}
	.st85{fill:#051A78;}
	.st86{fill:url(#SVGID_84_);}
	.st87{fill:url(#SVGID_85_);}
	.st88{fill:url(#SVGID_86_);}
	.st89{fill:url(#SVGID_87_);}
	.st90{fill:url(#SVGID_88_);}
	.st91{fill:url(#SVGID_89_);}
	.st92{fill:url(#SVGID_90_);}
	.st93{fill:#1B2C49;}
	.st94{fill:url(#SVGID_91_);}
	.st95{fill:url(#SVGID_92_);}
	.st96{fill:url(#SVGID_93_);}
	.st97{fill:url(#SVGID_94_);}
	.st98{fill:url(#SVGID_95_);}
	.st99{fill:url(#SVGID_96_);}
	.st100{fill:url(#SVGID_97_);}
	.st101{fill:url(#SVGID_98_);}
	.st102{fill:url(#SVGID_99_);}
	.st103{fill:url(#SVGID_100_);}
	.st104{fill:url(#SVGID_101_);}
	.st105{fill:#11A7F6;}
	.st106{fill:url(#SVGID_102_);}
	.st107{fill:url(#SVGID_103_);}
	.st108{fill:url(#SVGID_104_);}
	.st109{fill:url(#SVGID_105_);}
	.st110{fill:url(#SVGID_106_);}
	.st111{fill:url(#SVGID_107_);}
	.st112{fill:url(#SVGID_108_); display: none;}
	.st113{fill:url(#SVGID_109_); display: none;}
	.st114{fill:#D6E7F7;}
	.st115{fill:#1BAFF8;}
	.st116{fill:#09BFFF;}
	.st117{fill:url(#SVGID_110_);}
	.st118{fill:url(#SVGID_111_);}
	.st119{fill:url(#SVGID_112_);}
	.st120{fill:url(#SVGID_113_);}
	.st121{fill:url(#SVGID_114_);}
	.st122{fill:url(#SVGID_115_);}
	.st123{fill:url(#SVGID_116_);}
	.st124{fill:url(#SVGID_117_);}
	.st125{fill:url(#SVGID_118_);}
	.st126{fill:url(#SVGID_119_);}
	.st127{fill:url(#SVGID_120_);}
	.st128{fill:url(#SVGID_121_);}


        .animateOpacity {
        animation: 2s ease-in-out 1s infinite animateOpacity;
        }

        .animateOpacity1 {
        animation: 3s ease-in-out 1s infinite animateOpacity1;
        }

        .animatePosHorizontal {
        animation: 3s ease-in-out 1s infinite animatePosHorizontal;
        }

        .animatePosVertical {
        animation: 8s ease-in-out 1s infinite animatePosVertical;
        }

        .animatePosVertical1 {
        animation: 5s ease-in-out 1s infinite animatePosVertical1;
        }

        .animateDelay1 {
        animation-delay: 0.5s;
        }

        .animateDelay2 {
        animation-delay: 0.25s;
        }

        .animateSpeed1 {
        	animation-duration: 8s;
        }

        .animateSpeed2 {
        	animation-duration: 4s;
        }

		.animateRocket {
        	animation: 7s ease-in-out 1s infinite animateRocket;
			animation-timing-function: ease-in-out;
        }

		.animateRocketEngine {
			display: none;
        	animation: 1s ease-in-out 1s infinite animateRocketEngine;
        }

        @keyframes animateOpacity { 0% { opacity: 1 } 50% { opacity: 0.3 }  100% { opacity: 1 }}

        @keyframes animateOpacity1 { 0% { opacity: 1 } 50% { opacity: 0.3 }  100% { opacity: 1 }}

        @keyframes animatePosHorizontal { 0% { transform: translate(0px, 0px); } 50% { transform: translate(10px, 0px); }  100% { transform: translate(0px, 0px); }}

        @keyframes animatePosVertical { 0% { transform: translate(0px, 0px); } 50% { transform: translate(0px, 20px); }  100% { transform: translate(0px, 0px); }}

        @keyframes animatePosVertical1 { 0% { transform: translate(0px, 0px); } 50% { transform: translate(0px, -30px); }  100% { transform: translate(0px, 0px); }}

        @keyframes animateRocket {
			0% { transform: translate(0px, 0px); }
			15% { transform: translate(10px, -200px); }
			60% { transform: translate(-10px, -200px); }
			100% { transform: translate(0px, 0px); }
		}

        @keyframes animateRocketEngine { 0% { transform: translate(0px, 0px); opacity: 1; } 100% { transform: translate(0px, 30px); opacity: 0; }}


</style>

    <radialGradient id="mainFireBg">
  		<stop offset="0%" stop-color="#d43300"/>
        <stop offset="100%" stop-color="#ef5a00"/>
    </radialGradient>
    <style type="text/css">

		.fire-container {
		    animation: 7s ease-in-out 1s infinite animateRocket;
			animation-timing-function: ease-in-out;
		}

		.rocket-fire {
			transform: translate(1060px, 980px) scale(1.3);
		}
		.fire-main {
			  animation: scaleUpDown 1s ease-out;
			  animation-iteration-count: infinite;
			  animation-fill-mode: both;
			  fill: url(#mainFireBg);
		}

		.fire-right {
		  fill: url(#mainFireBg);
		  transform: scaleX(0.8) rotate(45deg);
		  animation: fireShake 2s ease-out 0;
		animation-iteration-count: infinite;
			  animation-fill-mode: both;
		}

		.fire-left {
		  fill: url(#mainFireBg);
		  transform: scaleX(0.8) rotate(45deg);
		  animation: fireShake 3s ease-out 0;
		animation-iteration-count: infinite;
			  animation-fill-mode: both;
		}

	@keyframes scaleUpDown {
		0%,
			100% {
			transform: scaleY(1) scaleX(1);
		}
		50%,
		90% {
			transform: scaleY(1.1);
		}
		75% {
			transform: scaleY(0.95);
		}
		80% {
			transform: scaleX(0.95);
		}
	}

	@keyframes fireShake {
		0%,
		100% {
			transform: skewX(0) scale(1);
		}
		50% {
			transform: skewX(5deg) scale(0.9);
		}
	}

	@keyframes particleUp {
		0% {
			opacity: 0;
		}
		20% {
			opacity: 1;
		}
		80% {
			opacity: 1;
		}
		100% {
			opacity: 0;
			top: -100%;
			transform: scale(0.5);
		}
	}

	@keyframes glow {
		0%,
		100% {
			background-color: #ef5a00;
		}
		50% {
			background-color: #ff7800;
		}
	}
</style>
    <g id="BG_1_">
</g>
    <g id="Vector">
	<linearGradient id="SVGID_1_" gradientUnits="userSpaceOnUse" x1="1139.6471" y1="438.551" x2="1139.6471"
                    y2="608.5361"
                    gradientTransform="matrix(0.9999 1.327123e-02 1.327123e-02 -0.9999 -1.4319 1529.5997)">
				<stop offset="0" style="stop-color:#5940E7;stop-opacity:1.000000e-02"/>
        <stop offset="1" style="stop-color:#FFFFFF"/>
			</linearGradient>
        <path class="st0 class animateRocket" d="M1212.6,937.1v0.2c0,0.2,0,0.5,0,0.7s0,0.5,0,0.7s0,0.5,0,0.7s0,0.5,0,0.7s0,0.5,0,0.7s0,0.5,0,0.7
				s0,0.5,0,0.7s0,0.5,0,0.7s0,0.5,0,0.7s0,0.5,0,0.7s0,0.5,0,0.7s0,0.5,0,0.7s0,0.5,0,0.7s0,0.5,0,0.7s0,0.5,0,0.7s0,0.5,0,0.7
				s0,0.5,0,0.7s0,0.5,0,0.7s0,0.5,0,0.7s0,0.5,0,0.7s0,0.5,0,0.7s0,0.5,0,0.7s0,0.5,0,0.7s0,0.5,0,0.7s0,0.5,0,0.7s0,0.5,0,0.7
				s0,0.5,0,0.7s0,0.5,0,0.7s0,0.5,0,0.7s0,0.5,0,0.7s0,0.5,0,0.7s0,0.5,0,0.7s0,0.5,0,0.7s0,0.5,0,0.7s0,0.5,0,0.7s0,0.5,0,0.7
				s0,0.5,0,0.7s0,0.5,0,0.7s0,0.5,0,0.7s0,0.5,0,0.7s0,0.5,0,0.7s0,0.5,0,0.7s0,0.5,0,0.7s0,0.5,0,0.7s0,0.5,0,0.7s0,0.5,0,0.7
				s0,0.5,0,0.7s0,0.5,0,0.7s0,0.5,0,0.7s0,0.5,0,0.7s0,0.5,0,0.7s0,0.5,0,0.7s0,0.5,0,0.7s0,0.5,0,0.7s0,0.5,0,0.7s0,0.5,0,0.7
				s0,0.5,0,0.7s0,0.5,0,0.7s0,0.5,0,0.7s0,0.5,0,0.7s0,0.5,0,0.7s0,0.5,0,0.7s0,0.5,0,0.7s0,0.5,0,0.7s0,0.5,0,0.7s0,0.5,0,0.7
				s0,0.5,0,0.7s0,0.5,0,0.7s0,0.5,0,0.7s0,0.5,0,0.7s0,0.5,0,0.7s0,0.5,0,0.7s0,0.5,0,0.7s0,0.5,0,0.7s0,0.5,0,0.7s0,0.5,0,0.7
				s0,0.5,0,0.7s0,0.5,0,0.7s0,0.5,0,0.7s0,0.5,0,0.7s0,0.5,0,0.7s0,0.5,0,0.7s0,0.5,0,0.7s0,0.5,0,0.7s0,0.5,0,0.7s0,0.5,0,0.7
				s0,0.5,0,0.7s0,0.5,0,0.7s0,0.5,0,0.7s0,0.5,0,0.7s0,0.5,0,0.7s0,0.5,0,0.7s0,0.5,0,0.7s0,0.5,0,0.7s0,0.5,0,0.7s0,0.5,0,0.7
				s0,0.5,0,0.7s0,0.5,0,0.7s0,0.5,0,0.7s0,0.5,0,0.7s0,0.5,0,0.7s0,0.5,0,0.7s0,0.5,0,0.7s0,0.5,0,0.7s0,0.5,0,0.7s0,0.5,0,0.7
				s0,0.5,0,0.7s0,0.5,0,0.7s0,0.5,0,0.7s0,0.5,0,0.7s0,0.5,0,0.7s0,0.5,0,0.7s0,0.5,0,0.7s0,0.5,0,0.7s0,0.5,0,0.7s0,0.5,0,0.7
				s0,0.5,0,0.7s0,0.5,0,0.7s0,0.5,0,0.7s0,0.5,0,0.7s0,0.5,0,0.7s0,0.5,0,0.7s0,0.5,0,0.7s0,0.5,0,0.7s0,0.5,0,0.7s0,0.5,0,0.7
				s0,0.5,0,0.7s0,0.5,0,0.7s0,0.5,0,0.7s0,0.5,0,0.7s0,0.5,0,0.7s0,0.5,0,0.7s0,0.5,0,0.7s0,0.5,0,0.7s0,0.5,0,0.7s0,0.5,0,0.7
				s0,0.5,0,0.7s0,0.5,0,0.7s0,0.5,0,0.7s0,0.5,0,0.7s0,0.5,0,0.7s0,0.5,0,0.7s0,0.5,0,0.7s0,0.5,0,0.7s0,0.5,0,0.7s0,0.5,0,0.7
				s0,0.5,0,0.7s0,0.5,0,0.7s0,0.5,0,0.7s0,0.5,0,0.7s0,0.5,0,0.7s0,0.5,0,0.7s0,0.5,0,0.7s0,0.5,0,0.7s0,0.5,0,0.7s0,0.5,0,0.7
				s0,0.5,0,0.7s0,0.5,0,0.7s0,0.5,0,0.7s0,0.5,0,0.7s0,0.5,0,0.7s0,0.5,0,0.7s0,0.5,0,0.7s0,0.5,0,0.7s0,0.5,0,0.7s0,0.5,0,0.7
				s0,0.5,0,0.7s0,0.5,0,0.7s0,0.5,0,0.7s0,0.5,0,0.7s0,0.5,0,0.7s0,0.5,0,0.7s0,0.5,0,0.7s0,0.5,0,0.7s0,0.5,0,0.7s0,0.5,0,0.7
				s0,0.5,0,0.7s0,0.5,0,0.7s0,0.5,0,0.7s0,0.5,0,0.7s0,0.5,0,0.7s0,0.5,0,0.7s0,0.5,0,0.7s0,0.5,0,0.7s0,0.5,0,0.7s0,0.5,0,0.7
				s0,0.5,0,0.7s0,0.5,0,0.7s0,0.5,0,0.7s0,0.5,0,0.7s0,0.5,0,0.7s0,0.5,0,0.7s0,0.5,0,0.7s0,0.5,0,0.7s0,0.5,0,0.7s0,0.5,0,0.7
				s0,0.5,0,0.7s0,0.5,0,0.7s0,0.5,0,0.7c0.1,7.4-6.5,14.7-20,20.2c-26.5,10.7-69.1,10.2-95.3-1.3c-13.3-5.8-19.7-13.3-19.4-20.7
				c0-0.2,0-0.5,0-0.7s0-0.5,0-0.7s0-0.5,0-0.7s0-0.5,0-0.7s0-0.5,0-0.7s0-0.5,0-0.7s0-0.5,0-0.7s0-0.5,0-0.7s0-0.5,0-0.7
				s0-0.5,0-0.7s0-0.5,0-0.7s0-0.5,0-0.7s0-0.5,0-0.7s0-0.5,0-0.7s0-0.5,0-0.7s0-0.5,0-0.7s0-0.5,0-0.7s0-0.5,0-0.7s0-0.5,0-0.7
				s0-0.5,0-0.7s0-0.5,0-0.7s0-0.5,0-0.7s0-0.5,0-0.7s0-0.5,0-0.7s0-0.5,0-0.7s0-0.5,0-0.7s0-0.5,0-0.7s0-0.5,0-0.7s0-0.5,0-0.7
				s0-0.5,0-0.7s0-0.5,0-0.7s0-0.5,0-0.7s0-0.5,0-0.7s0-0.5,0-0.7s0-0.5,0-0.7s0-0.5,0-0.7s0-0.5,0-0.7s0-0.5,0-0.7s0-0.5,0-0.7
				s0-0.5,0-0.7s0-0.5,0-0.7s0-0.5,0-0.7s0-0.5,0-0.7s0-0.5,0-0.7s0-0.5,0-0.7s0-0.5,0-0.7s0-0.5,0-0.7s0-0.5,0-0.7s0-0.5,0-0.7
				s0-0.5,0-0.7s0-0.5,0-0.7s0-0.5,0-0.7s0-0.5,0-0.7s0-0.5,0-0.7s0-0.5,0-0.7s0-0.5,0-0.7s0-0.5,0-0.7s0-0.5,0-0.7s0-0.5,0-0.7
				s0-0.5,0-0.7s0-0.5,0-0.7s0-0.5,0-0.7s0-0.5,0-0.7s0-0.5,0-0.7s0-0.5,0-0.7s0-0.5,0-0.7s0-0.5,0-0.7s0-0.5,0-0.7s0-0.5,0-0.7
				s0-0.5,0-0.7s0-0.5,0-0.7s0-0.5,0-0.7s0-0.5,0-0.7s0-0.5,0-0.7s0-0.5,0-0.7s0-0.5,0-0.7s0-0.5,0-0.7s0-0.5,0-0.7s0-0.5,0-0.7
				s0-0.5,0-0.7s0-0.5,0-0.7s0-0.5,0-0.7s0-0.5,0-0.7s0-0.5,0-0.7s0-0.5,0-0.7s0-0.5,0-0.7s0-0.5,0-0.7s0-0.5,0-0.7s0-0.5,0-0.7
				s0-0.5,0-0.7s0-0.5,0-0.7s0-0.5,0-0.7s0-0.5,0-0.7s0-0.5,0-0.7s0-0.5,0-0.7s0-0.5,0-0.7s0-0.5,0-0.7s0-0.5,0-0.7s0-0.5,0-0.7
				s0-0.5,0-0.7s0-0.5,0-0.7s0-0.5,0-0.7s0-0.5,0-0.7s0-0.5,0-0.7s0-0.5,0-0.7s0-0.5,0-0.7s0-0.5,0-0.7s0-0.5,0-0.7s0-0.5,0-0.7
				s0-0.5,0-0.7s0-0.5,0-0.7s0-0.5,0-0.7s0-0.5,0-0.7s0-0.5,0-0.7s0-0.5,0-0.7s0-0.5,0-0.7s0-0.5,0-0.7s0-0.5,0-0.7s0-0.5,0-0.7
				s0-0.5,0-0.7s0-0.5,0-0.7s0-0.5,0-0.7s0-0.5,0-0.7s0-0.5,0-0.7s0-0.5,0-0.7s0-0.5,0-0.7s0-0.5,0-0.7s0-0.5,0-0.7s0-0.5,0-0.7
				s0-0.5,0-0.7s0-0.5,0-0.7s0-0.5,0-0.7s0-0.5,0-0.7s0-0.5,0-0.7s0-0.5,0-0.7s0-0.5,0-0.7s0-0.5,0-0.7s0-0.5,0-0.7s0-0.5,0-0.7
				s0-0.5,0-0.7s0-0.5,0-0.7s0-0.5,0-0.7s0-0.5,0-0.7s0-0.5,0-0.7s0-0.5,0-0.7s0-0.5,0-0.7s0-0.5,0-0.7s0-0.5,0-0.7s0-0.5,0-0.7
				s0-0.5,0-0.7s0-0.5,0-0.7s0-0.5,0-0.7s0-0.5,0-0.7s0-0.5,0-0.7s0-0.5,0-0.7s0-0.5,0-0.7s0-0.5,0-0.7s0-0.5,0-0.7s0-0.5,0-0.7
				s0-0.5,0-0.7s0-0.5,0-0.7s0-0.5,0-0.7s0-0.5,0-0.7s0-0.5,0-0.7s0-0.5,0-0.7s0-0.5,0-0.7s0-0.5,0-0.7s0-0.5,0-0.7s0-0.5,0-0.7
				s0-0.5,0-0.7s0-0.5,0-0.7s0-0.5,0-0.7s0-0.5,0-0.7s0-0.5,0-0.7s0-0.5,0-0.7s0-0.5,0-0.7s0-0.5,0-0.7s0-0.5,0-0.7s0-0.5,0-0.7
				s0-0.5,0-0.7s0-0.5,0-0.7s0-0.5,0-0.7s0-0.5,0-0.7s0-0.5,0-0.7s0-0.5,0-0.7s0-0.5,0-0.7s0-0.5,0-0.7s0-0.5,0-0.7s0-0.5,0-0.7
				s0-0.5,0-0.7s0-0.5,0-0.7s0-0.5,0-0.7s0-0.5,0-0.7s0-0.5,0-0.7s0-0.5,0-0.7s0-0.5,0-0.7s0-0.5,0-0.7s0-0.5,0-0.7s0-0.5,0-0.7
				c0-0.1,0-0.1,0-0.2c0.4,7,6.9,14,19.4,19.5c26.2,11.4,68.8,12,95.3,1.3C1205.4,950.9,1212,944.1,1212.6,937.1z"/>

        <path class="st14 animateRocketEngine" d="M1243.6,950.7c-5.3-7.5-13-14.3-23-20.1c-20.1-11.6-45.9-17.2-71.6-17.2c-25.8,0-51.5,5.6-71.6,17.2
			c-10,5.8-17.8,12.6-23,20.1c-5.3,7.5-8,15.7-8,24s2.8,16.5,8,24c5.3,7.5,13,14.3,23,20.1c20.1,11.6,45.9,17.2,71.6,17.2
			c25.8,0,51.5-5.6,71.6-17.2l0,0c10-5.8,17.8-12.6,23-20.1c5.3-7.5,8-15.7,8-24C1251.7,966.4,1248.9,958.2,1243.6,950.7z
			 M1235.8,993.2c-4.3,6.1-10.9,12.1-20,17.3l0,0c-18.1,10.5-42.5,15.9-66.8,15.9c-24.4,0-48.7-5.4-66.9-15.9
			c-9.1-5.2-15.7-11.2-20-17.3s-6.3-12.4-6.3-18.5c0-6.2,2-12.4,6.3-18.5s10.9-12.1,20-17.3c18.1-10.5,42.5-15.9,66.9-15.9
			s48.7,5.4,66.8,15.9c9.1,5.2,15.7,11.2,20,17.3s6.3,12.4,6.3,18.5C1242.1,980.9,1240.1,987.1,1235.8,993.2z"/>

        <linearGradient id="SVGID_15_" gradientUnits="userSpaceOnUse" x1="1232.135" y1="832.6313" x2="1470.0441"
                        y2="607.6439" gradientTransform="matrix(1 0 0 -1 0 1558.9291)">
			<stop offset="0" style="stop-color:#5940E7"/>
            <stop offset="0.5016" style="stop-color:#15B3FB"/>
            <stop offset="0.6328" style="stop-color:#4FC6FC"/>
            <stop offset="0.9335" style="stop-color:#DEF4FE"/>
            <stop offset="1" style="stop-color:#FFFFFF"/>
		</linearGradient>

        <g class="rocket-fire">
			<g class="fire-container">
				<path class="fire-left" d="M31.5,90.4c0,0-30.8-32.6-31.5-52.3C-0.5,23.1,4.6-0.3,31.5,0c27.4,0.3,30.6,22.6,30.6,38.1
					C62.1,58,31.5,90.4,31.5,90.4z"/>
                <path class="fire-right" d="M106.7,90.4c0,0-30.8-32.6-31.5-52.3C74.8,23.1,79.8-0.3,106.7,0c27.4,0.3,30.6,22.6,30.6,38.1
					C137.4,58,106.7,90.4,106.7,90.4z"/>
                <path class="fire-main" d="M69.3,119.4c0,0-40.7-43.1-41.6-69.1C27,30.4,33.7-0.4,69.3,0c36.2,0.4,40.4,29.9,40.4,50.3
					C109.7,76.6,69.3,119.4,69.3,119.4z"/>
			</g>
		</g>

        <path class="st15 animateRocket" d="M1265,897.3c-2.1,15.4-13.4,30.4-33.7,42.1c-45.5,26.2-119.2,26.2-164.7,0c-17.2-9.9-27.9-22.2-32.1-35.1
			c0,0,0,0,0-0.1c-1.2-2.4-41.7-81.5-40.7-220c0.1-16,0.8-32.8,2.1-50.4c11.4-148.6,65.2-255.8,79.6-282.2c2.3-4.1,3.6-6.3,3.6-6.3
			l137.6-6.9c0,0,2,3.2,5.3,9.5c16.5,31,66.9,135.8,77.9,279c1.5,18.8,2.2,36.8,2.3,53.9C1303.1,819.3,1265,897.3,1265,897.3z"/>

        <linearGradient id="SVGID_16_" gradientUnits="userSpaceOnUse" x1="1639.4941" y1="876.1404" x2="933.1778"
                        y2="935.9976" gradientTransform="matrix(1 0 0 -1 0 1558.9291)">
			<stop offset="0" style="stop-color:#5940E7"/>
            <stop offset="0.2422" style="stop-color:#3979F0"/>
            <stop offset="0.4935" style="stop-color:#4662EC"/>
            <stop offset="0.6299" style="stop-color:#2897F4"/>
            <stop offset="0.8616" style="stop-color:#B3EBFF"/>
            <stop offset="1" style="stop-color:#1BAFF8"/>
		</linearGradient>
        <path class="st16 animateRocket" d="M1302.1,680.8c-0.8,132.3-37.1,206.5-37.1,206.5c-2.1,15.4-13.4,30.4-33.7,42.1
			c-45.5,26.2-119.2,26.2-164.7,0c-17.2-9.9-27.9-22.2-32.1-35.1c0,0,0,0,0-0.1c-1.2-2.3-39.8-77.6-40.7-210
			c0.1-16,0.8-32.8,2.1-50.4c11.4-148.6,65.2-255.8,79.6-282.2c2.3-4.1,3.6-6.3,3.6-6.3l137.6-6.9c0,0,2,3.2,5.3,9.5
			c16.5,31,66.9,135.8,77.9,279C1301.3,645.8,1302,663.7,1302.1,680.8z"/>

        <linearGradient id="SVGID_17_" gradientUnits="userSpaceOnUse" x1="806.5317" y1="1019.3306" x2="1445.3959"
                        y2="1254.0339" gradientTransform="matrix(1 0 0 -1 0 1558.9291)">
			<stop offset="0" style="stop-color:#5940E7"/>
            <stop offset="0.5016" style="stop-color:#15B3FB"/>
            <stop offset="0.6328" style="stop-color:#4FC6FC"/>
            <stop offset="0.9335" style="stop-color:#DEF4FE"/>
            <stop offset="1" style="stop-color:#FFFFFF"/>
		</linearGradient>


        <path class="st18 animateRocket" d="M1200.9,382.7c-28.7,16.6-75.2,16.6-103.9,0c-14.8-8.6-22-19.9-21.5-31.1c2.3-4.1,3.6-6.3,3.6-6.3l137.6-6.9
			c0,0,2,3.2,5.3,9.5C1224.4,360.3,1217.4,373.2,1200.9,382.7z"/>

        <linearGradient id="SVGID_19_" gradientUnits="userSpaceOnUse" x1="1096.8003" y1="1253.5146" x2="1212.1472"
                        y2="1193.6361" gradientTransform="matrix(1 0 0 -1 0 1558.9291)">
			<stop offset="0" style="stop-color:#FFDA66"/>
            <stop offset="0.3281" style="stop-color:#FFFFFF"/>
            <stop offset="0.5372" style="stop-color:#FFF0C3"/>
            <stop offset="1" style="stop-color:#FFCB29"/>
		</linearGradient>
        <path class="st19 animateRocket" d="M1208.7,324.7L1208.7,324.7l-59.7-60c0,0-60.6,60.8-61.6,61.8c-2,2.2-3.7,4.4-5,6.7l0,0l0,0
			c-8,14.1-2.3,30.1,17,41.3c27.4,15.8,71.8,15.8,99.2,0C1222,361,1225.4,340.3,1208.7,324.7z"/>
        <g class="animateRocket">

			<linearGradient id="SVGID_20_" gradientUnits="userSpaceOnUse" x1="1522.0698" y1="771.3821"
                                x2="1260.5865" y2="702.9709" gradientTransform="matrix(1 0 0 -1 0 1558.9291)">
				<stop offset="0" style="stop-color:#5940E7"/>
                    <stop offset="0.5016" style="stop-color:#15B3FB"/>
                    <stop offset="0.6328" style="stop-color:#4FC6FC"/>
                    <stop offset="0.9335" style="stop-color:#DEF4FE"/>
                    <stop offset="1" style="stop-color:#FFFFFF"/>
			</linearGradient>

            <path class="st20" d="M1256.3,631.8l-20.7,7c14,88.2,32.6,212.1,22.9,280.9c25.9,19.3,42,52.3,48.8,92.9l44.4,44.8
				c6.9-4.6,12.6-9.5,16.1-15c0,0-19.8-267.9-38.9-323.6C1310,663,1256.3,631.8,1256.3,631.8z"/>

            <linearGradient id="SVGID_21_" gradientUnits="userSpaceOnUse" x1="1236.6366" y1="940.6012" x2="1324.4272"
                            y2="492.5264" gradientTransform="matrix(1 0 0 -1 0 1558.9291)">
				<stop offset="0" style="stop-color:#5940E7"/>
                <stop offset="0.5016" style="stop-color:#15B3FB"/>
                <stop offset="0.6328" style="stop-color:#4FC6FC"/>
                <stop offset="0.9335" style="stop-color:#DEF4FE"/>
                <stop offset="1" style="stop-color:#FFFFFF"/>
			</linearGradient>
            <path class="st21" d="M1235.6,638.8c16.6,89.4,16.6,217.7,6.4,290.5c25.9,19.3,42,52.3,48.8,92.9l61,35.2
				c0,0-20.3-273.3-39.3-329C1293.4,672.6,1235.6,638.8,1235.6,638.8z"/>
	</g>

        <g class="animateRocket">

				<linearGradient id="SVGID_22_" gradientUnits="userSpaceOnUse" x1="823.1711" y1="781.7034" x2="1001.0328"
                                y2="711.585" gradientTransform="matrix(1 0 0 -1 0 1558.9291)">
				<stop offset="0" style="stop-color:#5940E7"/>
                    <stop offset="0.5016" style="stop-color:#15B3FB"/>
                    <stop offset="0.6328" style="stop-color:#4FC6FC"/>
                    <stop offset="0.9335" style="stop-color:#DEF4FE"/>
                    <stop offset="1" style="stop-color:#FFFFFF"/>
			</linearGradient>
            <path class="st22" d="M1040.3,631.8l20.7,7c-14,88.2-32.6,212.1-22.9,280.9c-25.9,19.3-42,52.3-48.8,92.9l-44.4,44.8
				c-6.3-5.3-11.8-11.1-15.9-17.7c0,0,19.6-265.2,38.7-320.9C986.6,663,1040.3,631.8,1040.3,631.8z"/>

            <linearGradient id="SVGID_23_" gradientUnits="userSpaceOnUse" x1="1062.5521" y1="951.0367" x2="958.7994"
                            y2="428.8529" gradientTransform="matrix(1 0 0 -1 0 1558.9291)">
				<stop offset="0" style="stop-color:#5940E7"/>
                <stop offset="0.5016" style="stop-color:#15B3FB"/>
                <stop offset="0.6328" style="stop-color:#4FC6FC"/>
                <stop offset="0.9335" style="stop-color:#DEF4FE"/>
                <stop offset="1" style="stop-color:#FFFFFF"/>
			</linearGradient>
            <path class="st23" d="M1060.9,638.8c-16.6,89.4-16.6,217.7-6.4,290.5c-25.9,19.3-42,52.3-48.8,92.9l-61,35.2
				c0,0,20.3-273.3,39.3-329C1003.2,672.6,1060.9,638.8,1060.9,638.8z"/>
		</g>

        <g class="animateRocket">

				<linearGradient id="SVGID_111_" gradientUnits="userSpaceOnUse" x1="1166.9191" y1="958.769"
                                x2="1269.5316" y2="1070.5027" gradientTransform="matrix(1 0 0 -1 0 1558.9291)">
				<stop offset="0" style="stop-color:#5940E7"/>
                    <stop offset="0.5016" style="stop-color:#15B3FB"/>
                    <stop offset="0.6328" style="stop-color:#4FC6FC"/>
                    <stop offset="0.9335" style="stop-color:#DEF4FE"/>
                    <stop offset="1" style="stop-color:#FFFFFF"/>
			</linearGradient>
            <path class="st118" d="M1237.3,526.2c11.1,31.2,3.5,71.9-16.9,90.9c-3.9,3.7-4.4,13.5-8.6,15.1l-20.5-6.3
				c-11.4-3.1-21.7-13.8-27.8-30.8c-11.1-31.2-3.5-71.9,16.9-90.9c7.4-6.9,15.5-10,23.4-9.6c4.8,0.2,17.9,2.8,17.9,2.8
				C1229.8,502.4,1232.8,513.4,1237.3,526.2z"/>

            <linearGradient id="SVGID_112_" gradientUnits="userSpaceOnUse" x1="899.6691" y1="617.1732" x2="963.5311"
                            y2="617.1732" gradientTransform="matrix(1.4681 -0.2 -0.541 -1.5677 180.4076 1718.3595)">
				<stop offset="0" style="stop-color:#5940E7"/>
                <stop offset="1" style="stop-color:#1BAFF8"/>
			</linearGradient>
            <path class="st119" d="M1251.1,529.2c11,31.9,3.4,73.6-17,93.1s-45.8,9.4-56.8-22.5s-3.4-73.6,17-93.1
				C1214.6,487.2,1240.1,497.3,1251.1,529.2z"/>

            <linearGradient id="SVGID_113_" gradientUnits="userSpaceOnUse" x1="1232.5298" y1="861.1891" x2="1102.554"
                            y2="965.5118"
                            gradientTransform="matrix(1.065 -5.175558e-03 5.175558e-03 -1.0646 -37.2517 1540.2596)">
				<stop offset="0" style="stop-color:#5940E7"/>
                <stop offset="1" style="stop-color:#1BAFF8"/>
			</linearGradient>
            <path class="st120" d="M1246.8,531.4c9.4,29.1,2.4,67.5-15.6,85.8s-40.2,9.5-49.6-19.6s-2.4-67.5,15.6-85.8
				C1215.2,493.5,1237.4,502.3,1246.8,531.4z"/>

            <linearGradient id="SVGID_114_" gradientUnits="userSpaceOnUse" x1="1427.4994" y1="726.9805" x2="1159.9467"
                            y2="1059.9012" gradientTransform="matrix(1 0 0 -1 0 1558.9291)">
				<stop offset="0" style="stop-color:#5940E7"/>
                <stop offset="0.5016" style="stop-color:#15B3FB"/>
                <stop offset="0.6328" style="stop-color:#4FC6FC"/>
                <stop offset="0.9335" style="stop-color:#DEF4FE"/>
                <stop offset="1" style="stop-color:#FFFFFF"/>
			</linearGradient>
            <path class="st121" d="M1242.7,529.8c8.5,28.7,1.5,67.1-15.6,85.8c-17.1,18.6-37.8,10.4-46.2-18.3c-8.5-28.7-1.5-67.1,15.6-85.8
				C1213.6,492.9,1234.3,501.1,1242.7,529.8z"/>
		</g>
</g>

</svg>
