<svg xmlns="http://www.w3.org/2000/svg" width="226.851" height="212.512" viewBox="0 0 226.851 212.512">
    <g id="Сгруппировать_6855" data-name="Сгруппировать 6855" transform="translate(264.036 -2461.158)">
        <path id="Контур_13581" data-name="Контур 13581" d="M-118.221,2805.509q-.4.175-1.418.505-1.013.348-1.476.552a31.7,31.7,0,0,0-8.184,5.2,10.487,10.487,0,0,1-2.252,1.663,1.984,1.984,0,0,1-1.922-.1,2.9,2.9,0,0,1-1.234-1.275,10.391,10.391,0,0,1-.373-1.654,30.779,30.779,0,0,0-.918-3.746l-4.553-14.38a24.956,24.956,0,0,1-.793-2.675,2.106,2.106,0,0,1,.261-1.36,2.677,2.677,0,0,1,1.369-1.156,2.081,2.081,0,0,1,1.653-.016,1.969,1.969,0,0,1,1.164,1.029,16.2,16.2,0,0,1,.693,2.383q.59,2.507,2.713,9.438t2.291,7.312q.212.481.376.407a37.144,37.144,0,0,0,3.263-1.97,26.28,26.28,0,0,1,2.558-1.462,35.677,35.677,0,0,0,5.182-2.954,3.951,3.951,0,0,1,.677-.437,2.05,2.05,0,0,1,1.661-.089,1.963,1.963,0,0,1,1.078,1.057,2.319,2.319,0,0,1-.1,2.169A3.545,3.545,0,0,1-118.221,2805.509Z" transform="translate(-94.265 -250.326)" fill="#ee8ffc"/>
        <path id="Контур_13582" data-name="Контур 13582" d="M-18.466,2770.7q.759,1.723-1.086,5.39a10.927,10.927,0,0,1-5.486,5.271,6.179,6.179,0,0,1-5.18.176,7.672,7.672,0,0,1-3.767-4.2,14.844,14.844,0,0,1-.549-10.135q1.492-5.5,5.217-7.139a4.3,4.3,0,0,1,3.5-.137,4.27,4.27,0,0,1,2.358,2.3q1.268,2.881-.348,6.705a16.363,16.363,0,0,1-5.5,6.721.619.619,0,0,0-.234.814,2.357,2.357,0,0,0,1.37,1.205,2.739,2.739,0,0,0,2.2-.107q3.328-1.465,5.1-6.335a1.922,1.922,0,0,1,.934-1.2Q-18.954,2769.594-18.466,2770.7Zm-12.4,1.961a10.976,10.976,0,0,0,3.626-4.265q1.244-2.583.632-3.974a1.534,1.534,0,0,0-.711-.784,1.065,1.065,0,0,0-.95-.026q-1.441.634-2.262,3.526A12.009,12.009,0,0,0-30.864,2772.664Z" transform="translate(-175.881 -229.357)" fill="#ee8ffc"/>
        <path id="Контур_13583" data-name="Контур 13583" d="M32.867,2719.658a20.907,20.907,0,0,0,.69,4.1,37.116,37.116,0,0,0,1.182,4.816,4.76,4.76,0,0,0,1.124,1.768,1.09,1.09,0,0,0,1.189.119,5.455,5.455,0,0,0,1.637-1.106,9.965,9.965,0,0,0,1.605-2.436,2.738,2.738,0,0,1,1.144-1.353,1.174,1.174,0,0,1,.89-.066.932.932,0,0,1,.571.51q.641,1.457-.9,4.338a8.655,8.655,0,0,1-4.154,4.032,4.626,4.626,0,0,1-3.9.177,5.9,5.9,0,0,1-2.784-3.2q-.984-2.234-2.257-9.659-1.009.583-1.423.765l-.348.154a3.154,3.154,0,0,1-1.766.184,1.9,1.9,0,0,1-1.486-1.243q-.612-1.391.96-2.083l3.484-1.692q-.186-2.309-.837-5.9-.426-2.223,1.213-2.945a2.017,2.017,0,0,1,1.668-.073,1.944,1.944,0,0,1,1.056,1.008q.117.266.845,5.735,5.061-2.781,5.574-3.007a1.987,1.987,0,0,1,1.272-.254,1.445,1.445,0,0,1,.715.861q.649,1.474-1.676,2.972Z" transform="translate(-221.123 -190.243)" fill="#ee8ffc"/>
        <path id="Контур_13584" data-name="Контур 13584" d="M86.7,2679.671a13.384,13.384,0,0,1,.7,2.893l-.007-.016a12.878,12.878,0,0,1,.133,3.578l-.007-.016a2.637,2.637,0,0,1-1.465,2.463,2.149,2.149,0,0,1-1.476.126,1.439,1.439,0,0,1-1-.814,2.287,2.287,0,0,1-.124-1.022,3.038,3.038,0,0,1,.227-1.078,4.326,4.326,0,0,0-.041-3.639q-.285-.646-1.84-1.126-1.1-.346-1.225-.627l-.48-.777a4.381,4.381,0,0,1-.267-.83,1.681,1.681,0,0,1,.512-1.125,3.151,3.151,0,0,1,1.111-.934q.662-.292,3.081.758l.3.144a4.459,4.459,0,0,1,1.13.906,3.392,3.392,0,0,1,.731,1.121Z" transform="translate(-264.245 -165.607)" fill="#ee8ffc"/>
        <path id="Контур_13585" data-name="Контур 13585" d="M148.434,2695.941q-.46-.865-3.809-.932-4.133-.137-5.6-.905a4.42,4.42,0,0,1-2.078-2.159q-1.29-2.93,1.03-6.571a12.264,12.264,0,0,1,5.168-4.894q2.8-1.231,3.869,1.2a1.615,1.615,0,0,1-.127,1.44,2.056,2.056,0,0,1-.858.991,1.987,1.987,0,0,1-.748.052,1.949,1.949,0,0,0-.814.081,7.362,7.362,0,0,0-2.807,2.422q-1.335,1.773-.751,3.1a1.906,1.906,0,0,0,1.18.973,11.566,11.566,0,0,0,3.233.385,12.768,12.768,0,0,1,4.853.788,4.031,4.031,0,0,1,1.975,2.016q1.064,2.417-1.495,5.471a17.885,17.885,0,0,1-6.631,4.847q-3,1.319-3.952-.85a1.921,1.921,0,0,1,.031-1.634,2.252,2.252,0,0,1,1.16-1.183,3.691,3.691,0,0,1,1.079-.2,3.829,3.829,0,0,0,1.334-.291,12.74,12.74,0,0,0,3.043-1.933A4.7,4.7,0,0,0,148.434,2695.941Z" transform="translate(-307.79 -168.223)" fill="#ee8ffc"/>
        <path id="Контур_13586" data-name="Контур 13586" d="M275.269,2651.088a5.991,5.991,0,0,1-4.812.34,6.275,6.275,0,0,1-3.246-3.512q-1.837-4.172-.579-10.517t4.519-7.781a3.528,3.528,0,0,1,3.371.383,6.065,6.065,0,0,1,2.542,2.765,3.222,3.222,0,0,1,.356,2.4,1.854,1.854,0,0,1-.89,1.053q-1.606.708-2.847-1.394-.913-1.534-1.526-1.265-1.291.568-1.792,5.177a14.584,14.584,0,0,0,.717,7.373q.984,2.235,3.4,1.171a10.276,10.276,0,0,0,4.55-4.256,4.3,4.3,0,0,1,1.619-1.8.88.88,0,0,1,1.311.51q.561,1.275-1.461,4.606A11.517,11.517,0,0,1,275.269,2651.088Z" transform="translate(-407.407 -129.247)" fill="#ee8ffc"/>
        <path id="Контур_13587" data-name="Контур 13587" d="M338.838,2606.12l.048-.653a30.7,30.7,0,0,1,1.437-8.431q1.205-3.524,3.407-4.494a4.433,4.433,0,0,1,3.164-.287,3.091,3.091,0,0,1,2.038,1.732,2.716,2.716,0,0,1,.237,1.526,1.242,1.242,0,0,1-.758,1.016,2.833,2.833,0,0,1-2.243-.02,1.821,1.821,0,0,0-1.184-.131q-1.242.546-2.457,5.687a19.408,19.408,0,0,0,.31,10.22,3.347,3.347,0,0,1,.045,2.3,2.722,2.722,0,0,1-1.461,1.306,1.842,1.842,0,0,1-2.194-.585,14.646,14.646,0,0,1-2.35-4.035q-.532-1.208-1.37-3.291-.787-1.966-1.7-4.9-.238-.765-.387-1.193a13.6,13.6,0,0,1-.641-2.376,2.59,2.59,0,0,1,.386-1.524,2.712,2.712,0,0,1,1.306-1.208,1.9,1.9,0,0,1,1.584-.084,1.8,1.8,0,0,1,.959.921,15.928,15.928,0,0,1,.676,3.556,15.228,15.228,0,0,0,.442,2.216Z" transform="translate(-458.621 -100.61)" fill="#ee8ffc"/>
        <path id="Контур_13588" data-name="Контур 13588" d="M429.485,2573.461q.759,1.722-1.086,5.389a10.928,10.928,0,0,1-5.486,5.272,6.18,6.18,0,0,1-5.18.176,7.671,7.671,0,0,1-3.767-4.2,14.844,14.844,0,0,1-.549-10.134q1.492-5.5,5.217-7.139a4.3,4.3,0,0,1,5.855,2.165q1.268,2.881-.348,6.706a16.359,16.359,0,0,1-5.5,6.72.618.618,0,0,0-.234.814,2.356,2.356,0,0,0,1.371,1.205,2.738,2.738,0,0,0,2.2-.107q3.328-1.465,5.1-6.335a1.921,1.921,0,0,1,.934-1.2Q429,2572.352,429.485,2573.461Zm-12.4,1.961a10.976,10.976,0,0,0,3.627-4.265q1.244-2.583.632-3.974a1.531,1.531,0,0,0-.711-.784,1.063,1.063,0,0,0-.951-.026q-1.44.634-2.262,3.525A12.015,12.015,0,0,0,417.086,2575.422Z" transform="translate(-520.116 -77.783)" fill="#ee8ffc"/>
        <path id="Контур_13589" data-name="Контур 13589" d="M504.944,2541.243q-1.825,7.663-5.88,9.448a3.673,3.673,0,0,1-3.084-.046,4.658,4.658,0,0,1-2.4-2.522q-1.932-4.386-.208-11.066t5.7-8.428a2.813,2.813,0,0,1,3.545.87q1.9-.838,2.545.619a16.806,16.806,0,0,1,.744,2.677,32.931,32.931,0,0,0,1.736,5.739,11.485,11.485,0,0,0,1.6,2.852,11.687,11.687,0,0,0,.918.94,1.8,1.8,0,0,0,1.042.213,1.061,1.061,0,0,1,1.049.586,1.8,1.8,0,0,1-.233,1.782,3.483,3.483,0,0,1-1.532,1.346Q507.377,2547.623,504.944,2541.243Zm-5.039-8.751q-1.673.736-2.716,5.614t.093,7.46q.6,1.358,1.16,1.11,1.953-.861,3.282-5.586t.184-7.325a2.317,2.317,0,0,0-.952-1.153A1.156,1.156,0,0,0,499.905,2532.492Z" transform="translate(-581.421 -51.619)" fill="#ee8ffc"/>
        <path id="Контур_13590" data-name="Контур 13590" d="M566.475,2484.7a20.844,20.844,0,0,0,.69,4.1,37.176,37.176,0,0,0,1.182,4.816,4.754,4.754,0,0,0,1.125,1.769,1.09,1.09,0,0,0,1.188.119,5.466,5.466,0,0,0,1.638-1.107,9.957,9.957,0,0,0,1.605-2.436,2.74,2.74,0,0,1,1.143-1.354,1.175,1.175,0,0,1,.89-.066.932.932,0,0,1,.571.51q.642,1.458-.9,4.338a8.656,8.656,0,0,1-4.153,4.033,4.627,4.627,0,0,1-3.9.177,5.893,5.893,0,0,1-2.783-3.2q-.984-2.234-2.257-9.659-1.009.583-1.422.765l-.348.153a3.155,3.155,0,0,1-1.767.184,1.9,1.9,0,0,1-1.486-1.242q-.612-1.391.96-2.083l3.484-1.692q-.186-2.309-.837-5.9-.427-2.224,1.213-2.946a2.017,2.017,0,0,1,1.668-.073,1.942,1.942,0,0,1,1.056,1.008q.116.266.845,5.735,5.06-2.781,5.573-3.007a1.987,1.987,0,0,1,1.272-.254,1.442,1.442,0,0,1,.715.861q.649,1.474-1.676,2.972Z" transform="translate(-631.182 -9.686)" fill="#ee8ffc"/>
        <path id="Контур_13591" data-name="Контур 13591" d="M659.359,2472.242q.759,1.722-1.085,5.39a10.928,10.928,0,0,1-5.486,5.271,6.181,6.181,0,0,1-5.18.176,7.67,7.67,0,0,1-3.767-4.2,14.838,14.838,0,0,1-.549-10.134q1.492-5.5,5.216-7.14a4.3,4.3,0,0,1,5.855,2.166q1.269,2.88-.348,6.705a16.359,16.359,0,0,1-5.5,6.72.619.619,0,0,0-.234.815,2.358,2.358,0,0,0,1.37,1.206,2.74,2.74,0,0,0,2.2-.107q3.327-1.465,5.1-6.336a1.918,1.918,0,0,1,.933-1.2Q658.87,2471.133,659.359,2472.242Zm-12.4,1.961a10.974,10.974,0,0,0,3.626-4.265q1.244-2.583.632-3.974a1.529,1.529,0,0,0-.711-.784,1.063,1.063,0,0,0-.95-.026q-1.44.634-2.262,3.525A12.009,12.009,0,0,0,646.96,2474.2Z" transform="translate(-696.766)" fill="#ee8ffc"/>
        <path id="Контур_13592" data-name="Контур 13592" d="M-164.657,3043.591q-.46-.864-3.81-.931-4.132-.137-5.6-.906a4.419,4.419,0,0,1-2.077-2.159q-1.29-2.93,1.03-6.571a12.26,12.26,0,0,1,5.168-4.894q2.8-1.232,3.869,1.2a1.614,1.614,0,0,1-.127,1.439,2.054,2.054,0,0,1-.858.991,1.97,1.97,0,0,1-.748.052,1.954,1.954,0,0,0-.814.082,7.359,7.359,0,0,0-2.807,2.422q-1.335,1.773-.751,3.1a1.908,1.908,0,0,0,1.179.973,11.558,11.558,0,0,0,3.233.385,12.755,12.755,0,0,1,4.853.788,4.031,4.031,0,0,1,1.975,2.016q1.064,2.417-1.495,5.471a17.875,17.875,0,0,1-6.631,4.847q-3,1.319-3.951-.849a1.921,1.921,0,0,1,.031-1.635,2.248,2.248,0,0,1,1.16-1.182,3.669,3.669,0,0,1,1.079-.2,3.837,3.837,0,0,0,1.335-.291,12.741,12.741,0,0,0,3.043-1.933A4.7,4.7,0,0,0-164.657,3043.591Z" transform="translate(-67.19 -435.38)" fill="#ee8ffc"/>
        <path id="Контур_13593" data-name="Контур 13593" d="M-90.077,3011.121a14.445,14.445,0,0,1-1.338,8.386,10.465,10.465,0,0,1-5.03,5.387,5.632,5.632,0,0,1-4.83-.018,7.01,7.01,0,0,1-3.532-3.712,15.823,15.823,0,0,1-.79-9.692q1.092-5.421,5.247-7.251a6.223,6.223,0,0,1,5.508.075,8.218,8.218,0,0,1,3.953,4.219,11.827,11.827,0,0,1,.8,2.59Zm-10.912-1.44a11.676,11.676,0,0,0-.825,4.276,11.081,11.081,0,0,0,.881,5.008,4.981,4.981,0,0,0,1.5,2.045,1.644,1.644,0,0,0,1.726.307q2.053-.9,3.2-4.314a8.639,8.639,0,0,0-.187-6.44,5.5,5.5,0,0,0-1.956-2.489,2.486,2.486,0,0,0-2.5-.215,3.582,3.582,0,0,0-1.83,1.814Z" transform="translate(-121.448 -416.859)" fill="#ee8ffc"/>
        <path id="Контур_13594" data-name="Контур 13594" d="M-22.887,2969.173a1.879,1.879,0,0,1-1.153,2.543q-2.169.955-3.546-2.174a64.078,64.078,0,0,1-3.266-8.9,39.511,39.511,0,0,0-1.99-5.686,1.66,1.66,0,0,1-.064-1.266,1.655,1.655,0,0,1,.966-.949q2.483-1.094,3.81,1.919a37.376,37.376,0,0,1,1.317,5.369,19.778,19.778,0,0,0,.994,3.694q.157-12.482,3.965-14.158a3.238,3.238,0,0,1,3.014.135q1.474.814,3.359,5,1.707,3.834,2.088,3.666.3-.13.429-4.636a21.87,21.87,0,0,1,.97-6.93,4.642,4.642,0,0,1,2.355-2.618,3.055,3.055,0,0,1,3.362.408,16.781,16.781,0,0,1,3.51,4.829,28.628,28.628,0,0,0,2.653,4.207,3.221,3.221,0,0,0,2.338,1.382,1.39,1.39,0,0,1,1.352.827,2.114,2.114,0,0,1-.313,1.847,3.432,3.432,0,0,1-1.6,1.566,3.2,3.2,0,0,1-3.373-.5q-1.685-1.245-4.224-6.115a24.209,24.209,0,0,0-1.8-3.032q-.554-.7-.967-.513-.364.161-.538,1.65t-.326,5.767a23.211,23.211,0,0,1-.637,5.577,3.372,3.372,0,0,1-1.772,2.282,3.258,3.258,0,0,1-2.293.021q-1.333-.4-3.7-5.546-2.117-4.582-2.63-4.356-.7.306-1.536,5.578A51.509,51.509,0,0,0-22.887,2969.173Z" transform="translate(-177.542 -370.943)" fill="#ee8ffc"/>
        <path id="Контур_13595" data-name="Контур 13595" d="M137.843,2911.665q.758,1.722-1.086,5.389a10.927,10.927,0,0,1-5.486,5.272,6.183,6.183,0,0,1-5.18.176,7.675,7.675,0,0,1-3.767-4.2,14.839,14.839,0,0,1-.549-10.134q1.492-5.5,5.216-7.139a4.3,4.3,0,0,1,5.856,2.165q1.268,2.881-.348,6.706a16.366,16.366,0,0,1-5.5,6.72.619.619,0,0,0-.234.815,2.357,2.357,0,0,0,1.37,1.2,2.74,2.74,0,0,0,2.2-.107q3.327-1.466,5.1-6.336a1.919,1.919,0,0,1,.933-1.2Q137.355,2910.556,137.843,2911.665Zm-12.4,1.961a10.973,10.973,0,0,0,3.626-4.265q1.245-2.583.632-3.974a1.527,1.527,0,0,0-.711-.784,1.064,1.064,0,0,0-.95-.026q-1.441.635-2.262,3.526A12.012,12.012,0,0,0,125.444,2913.626Z" transform="translate(-295.998 -337.681)" fill="#ee8ffc"/>
        <path id="Контур_13596" data-name="Контур 13596" d="M189.176,2860.62a20.916,20.916,0,0,0,.69,4.1,37.207,37.207,0,0,0,1.182,4.816,4.756,4.756,0,0,0,1.125,1.768,1.089,1.089,0,0,0,1.189.119A5.449,5.449,0,0,0,195,2870.32a9.964,9.964,0,0,0,1.605-2.436,2.742,2.742,0,0,1,1.143-1.354,1.174,1.174,0,0,1,.89-.065.93.93,0,0,1,.57.509q.642,1.458-.9,4.338a8.655,8.655,0,0,1-4.154,4.032,4.626,4.626,0,0,1-3.9.177,5.9,5.9,0,0,1-2.783-3.2q-.984-2.235-2.257-9.659-1.009.583-1.422.764l-.348.153a3.155,3.155,0,0,1-1.767.185,1.9,1.9,0,0,1-1.486-1.243q-.612-1.391.96-2.083l3.484-1.693q-.187-2.309-.837-5.9-.426-2.223,1.213-2.945a2.014,2.014,0,0,1,1.668-.072,1.941,1.941,0,0,1,1.056,1.007q.117.265.845,5.735,5.061-2.782,5.574-3.008a1.992,1.992,0,0,1,1.272-.254,1.445,1.445,0,0,1,.715.861q.649,1.474-1.676,2.971Z" transform="translate(-341.241 -298.568)" fill="#ee8ffc"/>
        <path id="Контур_13597" data-name="Контур 13597" d="M257.149,2830.316q.481-6.358,1.656-9.1a6.5,6.5,0,0,1,3.211-3.637,3.412,3.412,0,0,1,2.769-.063q1.362.557,3.585,4.439a26.043,26.043,0,0,0,1.841,2.925,18.742,18.742,0,0,0,1.559,1.834,7.006,7.006,0,0,0,1.755,1.292,2.255,2.255,0,0,1,1.043,1.023,1.572,1.572,0,0,1-.09,1.344,2.127,2.127,0,0,1-1.1,1.076,3.524,3.524,0,0,1-3.323-.454,9.525,9.525,0,0,1-3.311-3.839,27.769,27.769,0,0,0-2.517-4.168q-.729-.825-1.44-.512-.961.423-2.046,5.476a62.314,62.314,0,0,0-1.3,7.894,12.831,12.831,0,0,1-.184,2.769,1.39,1.39,0,0,1-.8.965,2.807,2.807,0,0,1-1.858.225,1.846,1.846,0,0,1-1.249-1.131,27.531,27.531,0,0,1-.785-2.994q-2.226-9.634-5.567-20.14a7.226,7.226,0,0,1-.451-3.784,2.191,2.191,0,0,1,.978-1.528,2.226,2.226,0,0,1,1.822.008,2.874,2.874,0,0,1,1.477,1.6,26.019,26.019,0,0,1,1.434,4.468q.618,2.614,1.725,8.451Q256.649,2828.283,257.149,2830.316Z" transform="translate(-393.825 -268.103)" fill="#ee8ffc"/>
        <path id="Контур_13598" data-name="Контур 13598" d="M350.226,2769.176a2.871,2.871,0,0,1-.152,2.528,3.379,3.379,0,0,1-1.448,1.695,2.568,2.568,0,0,1-2.128-.051,2.685,2.685,0,0,1-1.5-1.317,2.8,2.8,0,0,1-.088-2.264,3.3,3.3,0,0,1,1.861-1.7,2.73,2.73,0,0,1,2.084-.137A2.258,2.258,0,0,1,350.226,2769.176Zm-2,17.129.007.016q-.8-3.246-.986-3.677a4.031,4.031,0,0,1-.366-2.29,1.849,1.849,0,0,1,1.134-1.487,2.888,2.888,0,0,1,1.988-.243,1.683,1.683,0,0,1,1.154.915,13.751,13.751,0,0,1,.59,3l.061.408a32.427,32.427,0,0,0,1.2,5.7q.707,2.1,1.254,3.342a15.412,15.412,0,0,0,1.536,2.545,3.413,3.413,0,0,1,.268.475,1.906,1.906,0,0,1-.268,1.344,2.494,2.494,0,0,1-1.263,1.327q-2.186.962-3.643-2.349a39.84,39.84,0,0,1-2.223-7.2Q348.439,2787.159,348.222,2786.305Z" transform="translate(-467.803 -235.631)" fill="#ee8ffc"/>
        <path id="Контур_13599" data-name="Контур 13599" d="M411.086,2797.906a17.878,17.878,0,0,1-3.608-5.052q-2.23-4.077-3.488-3.523-1.192.524-2.18,6.227a34.222,34.222,0,0,0-.741,8.1,2.367,2.367,0,0,1-.095,1.287,1.262,1.262,0,0,1-.621.767q-2.517,1.108-3.53-1.193a29.737,29.737,0,0,1-1.063-3.761,54.805,54.805,0,0,0-3.2-9.026,3.051,3.051,0,0,1-.054-1.962,2.042,2.042,0,0,1,1.05-1.52,2.272,2.272,0,0,1,1.685-.169q.724.255,1.635,2.324a40.549,40.549,0,0,1,1.739,6.507q-.11-9.991,4.31-11.938,3.84-1.691,7.164,4.06,3.373,5.867,4.235,5.488a3.058,3.058,0,0,0,.8-.552,3.484,3.484,0,0,1,.856-.614q.795-.35,1.2.577a2.809,2.809,0,0,1-.3,2.277,4.405,4.405,0,0,1-2.329,2.162,3.1,3.1,0,0,1-3.484-.462Z" transform="translate(-504.427 -248.548)" fill="#ee8ffc"/>
        <path id="Контур_13600" data-name="Контур 13600" d="M512.228,2747.495a17.26,17.26,0,0,1-2.782,5.286,10,10,0,0,1-3.626,3.188,3.892,3.892,0,0,1-3.176.173,4.327,4.327,0,0,1-2.215-2.4,12.137,12.137,0,0,1-.569-6.568,19.794,19.794,0,0,1,2.988-7.848,12.543,12.543,0,0,1,5.192-5.063,4.676,4.676,0,0,1,3-.332q.352.083.609.127a2.748,2.748,0,0,1,1.192.71,3.473,3.473,0,0,1,.875,1.067,11.727,11.727,0,0,1,.253,2.28,19.782,19.782,0,0,0,.61,3.833q.476,1.777,2.638,8.75,1.864,6.076.489,9.864a8.413,8.413,0,0,1-4.488,5.158,11.76,11.76,0,0,1-7.3.595q-4.036-.842-4.664-2.265a1.2,1.2,0,0,1,.671-1.8,5.61,5.61,0,0,1,2.376.1q4.868.822,7.567-.367,2.052-.9,2.31-4.09T512.228,2747.495Zm-3.656-9.38a6.608,6.608,0,0,0-2.566,2.879,17.5,17.5,0,0,0-1.937,5.566,8.68,8.68,0,0,0,.127,4.866q.379.861,1.008.584a7.279,7.279,0,0,0,3.476-3.6,15.909,15.909,0,0,0,1.649-5.479,8.574,8.574,0,0,0-.2-3.982,1.5,1.5,0,0,0-.706-.8A.975.975,0,0,0,508.572,2738.115Z" transform="translate(-586.885 -209.525)" fill="#ee8ffc"/>
        <path id="Контур_13601" data-name="Контур 13601" d="M-251.656,3293.966q-1.825,7.663-5.88,9.448a3.673,3.673,0,0,1-3.084-.046,4.658,4.658,0,0,1-2.4-2.522q-1.932-4.387-.208-11.066t5.7-8.427a2.813,2.813,0,0,1,3.546.87q1.9-.838,2.545.618a16.872,16.872,0,0,1,.744,2.677,32.929,32.929,0,0,0,1.736,5.738,11.5,11.5,0,0,0,1.6,2.853,11.7,11.7,0,0,0,.918.939,1.791,1.791,0,0,0,1.042.213,1.06,1.06,0,0,1,1.049.585,1.805,1.805,0,0,1-.233,1.783,3.483,3.483,0,0,1-1.532,1.346Q-249.223,3300.346-251.656,3293.966Zm-5.039-8.75q-1.673.736-2.716,5.614t.093,7.46q.6,1.358,1.16,1.11,1.953-.859,3.282-5.586t.184-7.325a2.315,2.315,0,0,0-.952-1.152A1.152,1.152,0,0,0-256.7,3285.216Z" transform="translate(0 -630.061)" fill="#ee8ffc"/>
        <path id="Контур_13602" data-name="Контур 13602" d="M-179.893,3248.095a1.88,1.88,0,0,1-1.153,2.543q-2.169.955-3.546-2.174a64.072,64.072,0,0,1-3.266-8.9,39.515,39.515,0,0,0-1.99-5.686,1.659,1.659,0,0,1-.064-1.266,1.657,1.657,0,0,1,.966-.949q2.483-1.094,3.81,1.919a37.422,37.422,0,0,1,1.317,5.369,19.762,19.762,0,0,0,.994,3.693q.157-12.48,3.965-14.157a3.235,3.235,0,0,1,3.014.135q1.475.814,3.36,5,1.707,3.834,2.089,3.666.3-.131.429-4.636a21.874,21.874,0,0,1,.971-6.93,4.642,4.642,0,0,1,2.355-2.619,3.055,3.055,0,0,1,3.362.408,16.78,16.78,0,0,1,3.51,4.828,28.636,28.636,0,0,0,2.653,4.208,3.22,3.22,0,0,0,2.338,1.382,1.39,1.39,0,0,1,1.353.827,2.115,2.115,0,0,1-.313,1.847,3.437,3.437,0,0,1-1.6,1.566,3.2,3.2,0,0,1-3.373-.5q-1.685-1.244-4.224-6.115a24.239,24.239,0,0,0-1.8-3.032q-.553-.695-.967-.513-.364.161-.538,1.65t-.327,5.766a23.164,23.164,0,0,1-.637,5.578,3.374,3.374,0,0,1-1.772,2.283,3.26,3.26,0,0,1-2.293.021q-1.333-.4-3.7-5.546-2.117-4.582-2.63-4.356-.7.306-1.536,5.578A51.479,51.479,0,0,0-179.893,3248.095Z" transform="translate(-56.888 -585.284)" fill="#ee8ffc"/>
        <path id="Контур_13603" data-name="Контур 13603" d="M-19.565,3191.772q-1.825,7.662-5.88,9.448a3.674,3.674,0,0,1-3.084-.046,4.659,4.659,0,0,1-2.4-2.522q-1.931-4.387-.208-11.066t5.7-8.428a2.813,2.813,0,0,1,3.545.87q1.9-.838,2.545.619a16.87,16.87,0,0,1,.743,2.677,32.933,32.933,0,0,0,1.736,5.738,11.5,11.5,0,0,0,1.6,2.852,11.682,11.682,0,0,0,.918.94,1.794,1.794,0,0,0,1.042.213,1.061,1.061,0,0,1,1.049.586,1.8,1.8,0,0,1-.233,1.782,3.486,3.486,0,0,1-1.532,1.346Q-17.132,3198.152-19.565,3191.772Zm-5.039-8.751q-1.673.737-2.717,5.614t.093,7.46q.6,1.357,1.16,1.11,1.953-.86,3.282-5.586t.184-7.325a2.315,2.315,0,0,0-.952-1.152A1.154,1.154,0,0,0-24.6,3183.021Z" transform="translate(-178.354 -551.528)" fill="#ee8ffc"/>
        <path id="Контур_13604" data-name="Контур 13604" d="M52.843,3156.055q3.775-1.661,4.759.573a3.647,3.647,0,0,1-.036,2.882,12.694,12.694,0,0,1-1.342-.041,8.669,8.669,0,0,0-3.932.9,33.083,33.083,0,0,0-4.169,2.448,9.566,9.566,0,0,0-3.526,3.371,3.387,3.387,0,0,1-1.747,1.777,3.11,3.11,0,0,1-1.867.25,1.646,1.646,0,0,1-1.253-.872q.413-1.309,1.147-3.232,5.931-15.616,5.93-16.426a15.03,15.03,0,0,0-1.63.876,38.016,38.016,0,0,1-4.163,2.307q-4.122,1.815-5.026-.238-.78-1.771,1.306-2.69a1.232,1.232,0,0,1,.434-.092,8.076,8.076,0,0,0,2.87-.71,44.876,44.876,0,0,0,5.943-3.289,10.574,10.574,0,0,1,1.5-.858,2.879,2.879,0,0,1,1.8-.248,1.535,1.535,0,0,1,1.142.91,5.465,5.465,0,0,1-.285,2.675l.009-.024q-.091,1.365-4.72,13.7a5.885,5.885,0,0,0-.236.676,2.224,2.224,0,0,1,.219-.175,4.946,4.946,0,0,0,.462-.342l.58-.433q.318-.219.58-.433a8.477,8.477,0,0,1,.705-.508,28.35,28.35,0,0,1,4.415-2.676Z" transform="translate(-230.395 -523.732)" fill="#ee8ffc"/>
        <path id="Контур_13605" data-name="Контур 13605" d="M116.572,3081.848a2.873,2.873,0,0,1-.152,2.528,3.38,3.38,0,0,1-1.448,1.694,2.566,2.566,0,0,1-2.128-.051,2.687,2.687,0,0,1-1.5-1.316,2.8,2.8,0,0,1-.088-2.264,3.3,3.3,0,0,1,1.861-1.7,2.728,2.728,0,0,1,2.084-.137A2.259,2.259,0,0,1,116.572,3081.848Zm-2,17.129.007.016q-.8-3.245-.986-3.676a4.034,4.034,0,0,1-.366-2.29,1.85,1.85,0,0,1,1.134-1.487,2.887,2.887,0,0,1,1.988-.243,1.685,1.685,0,0,1,1.154.915,13.744,13.744,0,0,1,.59,3l.061.409a32.44,32.44,0,0,0,1.2,5.7q.707,2.1,1.254,3.341a15.412,15.412,0,0,0,1.536,2.545,3.442,3.442,0,0,1,.268.474,1.908,1.908,0,0,1-.268,1.344,2.491,2.491,0,0,1-1.263,1.327q-2.186.963-3.643-2.349a39.831,39.831,0,0,1-2.223-7.2Q114.785,3099.83,114.568,3098.977Z" transform="translate(-288.248 -475.908)" fill="#ee8ffc"/>
        <path id="Контур_13606" data-name="Контур 13606" d="M177.432,3110.578a17.881,17.881,0,0,1-3.608-5.052q-2.23-4.077-3.489-3.523-1.192.524-2.18,6.227a34.222,34.222,0,0,0-.741,8.1,2.369,2.369,0,0,1-.095,1.287,1.262,1.262,0,0,1-.621.767q-2.517,1.109-3.53-1.193a29.834,29.834,0,0,1-1.063-3.762,54.868,54.868,0,0,0-3.2-9.025,3.05,3.05,0,0,1-.054-1.963,2.045,2.045,0,0,1,1.05-1.52,2.273,2.273,0,0,1,1.685-.168q.724.255,1.636,2.324a40.54,40.54,0,0,1,1.739,6.507q-.111-9.991,4.31-11.938,3.84-1.692,7.164,4.06,3.373,5.867,4.235,5.488a3.074,3.074,0,0,0,.8-.552,3.494,3.494,0,0,1,.856-.614q.8-.35,1.2.577a2.81,2.81,0,0,1-.3,2.277,4.4,4.4,0,0,1-2.329,2.162,3.1,3.1,0,0,1-3.484-.462Z" transform="translate(-324.871 -488.825)" fill="#ee8ffc"/>
        <path id="Контур_13607" data-name="Контур 13607" d="M278.573,3060.166a17.257,17.257,0,0,1-2.781,5.286,9.994,9.994,0,0,1-3.627,3.188,3.891,3.891,0,0,1-3.175.172,4.326,4.326,0,0,1-2.215-2.4,12.136,12.136,0,0,1-.57-6.567,19.791,19.791,0,0,1,2.988-7.848,12.542,12.542,0,0,1,5.192-5.062,4.672,4.672,0,0,1,3-.331q.352.082.609.126a2.746,2.746,0,0,1,1.192.71,3.472,3.472,0,0,1,.875,1.067,11.733,11.733,0,0,1,.253,2.28,19.784,19.784,0,0,0,.61,3.833q.475,1.776,2.637,8.75,1.865,6.077.49,9.864a8.415,8.415,0,0,1-4.488,5.158,11.765,11.765,0,0,1-7.3.595q-4.036-.842-4.664-2.265a1.2,1.2,0,0,1,.671-1.8,5.633,5.633,0,0,1,2.376.1q4.868.821,7.567-.367,2.052-.9,2.31-4.09T278.573,3060.166Zm-3.656-9.379a6.615,6.615,0,0,0-2.566,2.879,17.515,17.515,0,0,0-1.937,5.567,8.679,8.679,0,0,0,.127,4.865q.379.861,1.008.584a7.28,7.28,0,0,0,3.476-3.6,15.92,15.92,0,0,0,1.649-5.479,8.576,8.576,0,0,0-.2-3.983,1.5,1.5,0,0,0-.706-.8A.977.977,0,0,0,274.917,3050.787Z" transform="translate(-407.329 -449.803)" fill="#ee8ffc"/>
    </g>
</svg>
