<svg id="social-care" xmlns="http://www.w3.org/2000/svg" width="60.16" height="56.4"
	viewBox="0 0 60.16 56.4">
	<path id="Контур_179" data-name="Контур 179"
		d="M210.1,23.05a7.05,7.05,0,1,0-7.05,7.05A7.058,7.058,0,0,0,210.1,23.05Zm-7.05,4.7a4.7,4.7,0,1,1,4.7-4.7A4.705,4.705,0,0,1,203.05,27.75Z"
		transform="translate(-172.97 -16)" fill="#056cf2"></path>
	<path id="Контур_180" data-name="Контур 180"
		d="M187.15,151.275v-4.7a10.575,10.575,0,0,0-21.15,0v4.7a1.175,1.175,0,0,0,1.175,1.175h18.8A1.175,1.175,0,0,0,187.15,151.275ZM184.8,150.1H168.35v-3.525a8.225,8.225,0,0,1,16.45,0Z"
		transform="translate(-146.495 -121.9)" fill="#056cf2"></path>
	<path id="Контур_181" data-name="Контур 181"
		d="M8.443,150.323l5.657,2.828v6.324a1.175,1.175,0,0,0,1.175,1.175H27.73a1.175,1.175,0,0,0,1.175-1.175V144.527a7.3,7.3,0,0,0-6.273-7.335c-.093-.018-4.541-.349-6.691-2.5l-3.217-3.217A4.668,4.668,0,0,0,9.4,130.1v-9.4a4.7,4.7,0,1,0-9.4,0v15.961a15.276,15.276,0,0,0,8.443,13.662ZM2.35,120.7a2.35,2.35,0,1,1,4.7,0v10.03a4.7,4.7,0,0,0-.973,7.393l6.017,6.018a1.175,1.175,0,0,0,1.662-1.662l-6.017-6.018a2.35,2.35,0,0,1,.878-3.877h0a2.347,2.347,0,0,1,2.444.555l3.218,3.217c2.191,2.19,5.385,2.806,8.088,3.171l.013,0a4.932,4.932,0,0,1,4.175,5V158.3H16.45v-5.875a1.175,1.175,0,0,0-.65-1.051l-6.306-3.153a12.856,12.856,0,0,1-7.144-11.56Z"
		transform="translate(0 -104.25)" fill="#056cf2"></path>
	<circle id="Эллипс_43" data-name="Эллипс 43" cx="1.175" cy="1.175" r="1.175"
		transform="translate(53.112 42.003)" fill="#056cf2"></circle>
	<path id="Контур_182" data-name="Контур 182"
		d="M290.2,116a4.705,4.705,0,0,0-4.7,4.7v9.4a4.668,4.668,0,0,0-3.323,1.377l-3.217,3.217c-1.875,1.874-4.917,2.186-6.692,2.5A7.3,7.3,0,0,0,266,144.527v14.948a1.175,1.175,0,0,0,1.175,1.175H279.63a1.175,1.175,0,0,0,1.175-1.175v-6.324l3.846-1.923a1.175,1.175,0,0,0-1.051-2.1l-4.5,2.247a1.176,1.176,0,0,0-.65,1.051V158.3h-10.1V144.527a4.933,4.933,0,0,1,4.175-5l.013,0c2.745-.371,5.9-.983,8.089-3.171l3.217-3.217a2.348,2.348,0,0,1,2.444-.555h0a2.35,2.35,0,0,1,.878,3.878l-6.017,6.018a1.175,1.175,0,0,0,1.662,1.662l6.017-6.018a4.7,4.7,0,0,0-.973-7.393V120.7a2.35,2.35,0,1,1,4.7,0v15.961a12.96,12.96,0,0,1-1.569,6.172,1.175,1.175,0,1,0,2.065,1.122,15.317,15.317,0,0,0,1.854-7.295V120.7A4.705,4.705,0,0,0,290.2,116Z"
		transform="translate(-234.745 -104.25)" fill="#056cf2"></path>
</svg>