<svg version="1.1" id="Слой_1" xmlns="http://www.w3.org/2000/svg" xmlns:xlink="http://www.w3.org/1999/xlink" x="0px" y="0px"
	 viewBox="0 0 356 273" style="enable-background:new 0 0 356 273;" xml:space="preserve">
<path d="M18.5,135.4c0-8.1,1.4-16.2,4.2-24.3c2.9-8.2,5.8-14.3,8.7-18.3l4.4-6.3L91.9,0h44.7L93.3,66.2c2.5-0.9,5.4-1.4,8.7-1.4
	c14.8,0,28.2,4.8,40.2,14.3l-40,23.8c-2.4-0.4-4.9-0.7-7.5-0.7c-9.9,0-18.2,3.2-24.8,9.6c-4.5,4.4-7.5,9.6-8.8,15.5l-40.9,24.3
	C19.1,146.5,18.5,141.1,18.5,135.4z" fill="white"/>
<path d="M225.2,0h-43.3v55.5l43.3-25.7V27V0z" fill="white"/>
<path d="M248,15.7L225.2,27v2.8L248,15.7z" fill="white"/>
<path d="M150.2,86.2c14,14.2,21,30.6,21,49.2c0,19.8-7.2,36.5-21.7,50.2c-14.3,13.6-32.6,20.4-54.7,20.4c-22,0-40.3-6.8-54.7-20.4
	c-7.9-7.6-13.7-16.1-17.2-25.5l37.5-22.3c0.5,8.4,3.7,15.5,9.6,21.3c6.6,6.3,14.8,9.4,24.8,9.4c10,0,18.3-3.1,24.8-9.4
	c6.6-6.4,9.8-14.3,9.8-23.6s-3.3-17.3-9.8-23.6c-2.1-2.1-4.4-3.8-6.8-5.2L149,85C149.4,85.4,149.8,85.8,150.2,86.2z" fill="white"/>
<path d="M354.7,0v201.7h-43.2v-82.1h-86.3v82.1h-43.3V65.4l43.3-25.8v41.1h86.3V0H354.7z" fill="white"/>
<path d="M24,163c0,0-0.5-2.4-1.2-2.9L0,174.1L24,163z" fill="white"/>
<path d="M45.8,249.3L38,230.5l-7.7,18.8H45.8z M46.8,251.7H29.2L25,262h-2.8l14.5-35h2.5l14.5,35H51L46.8,251.7z M86.2,257.2
	c-3.5-3.5-5.2-7.7-5.2-12.7c0-5,1.7-9.2,5.2-12.7c3.5-3.5,7.6-5.2,12.5-5.2c1.8,0,3.5,0.3,5.1,0.8c1.6,0.5,3,1.1,4,1.9
	c1.1,0.7,2,1.5,2.8,2.2c0.8,0.7,1.4,1.3,1.8,1.8l0.6,0.8l-1.8,1.5c-0.1-0.2-0.3-0.4-0.5-0.7c-0.2-0.3-0.7-0.8-1.5-1.6
	c-0.8-0.7-1.6-1.4-2.5-2c-0.9-0.6-2.1-1.1-3.5-1.6c-1.4-0.5-3-0.7-4.5-0.7c-4.3,0-7.9,1.5-10.8,4.5c-2.9,3-4.4,6.6-4.4,11
	s1.5,8,4.4,11c3,3,6.6,4.5,10.8,4.5c1.5,0,2.9-0.2,4.3-0.6c1.4-0.4,2.5-0.9,3.4-1.5c0.9-0.6,1.8-1.1,2.5-1.7c0.7-0.6,1.2-1,1.5-1.4
	l0.5-0.6V247h-9v-2.5h11.5V255c-0.1,0.2-0.3,0.5-0.6,0.8c-0.3,0.3-0.9,0.9-1.8,1.8c-0.9,0.9-1.9,1.6-3,2.3c-1.1,0.7-2.4,1.3-4.1,1.8
	c-1.7,0.5-3.4,0.8-5.2,0.8C93.8,262.5,89.6,260.7,86.2,257.2z M150.5,259.5H172v2.5h-24v-35h23.5v2.5h-21v13h17v2.5h-17V259.5z
	 M229.7,227h2.5v35h-2L207,231.8V262h-2.5v-35h2l23.3,30.2V227z M270.9,257.2c-3.5-3.5-5.2-7.7-5.2-12.7c0-5,1.7-9.2,5.2-12.7
	c3.5-3.5,7.6-5.2,12.5-5.2c1.8,0,3.5,0.3,5.1,0.8c1.6,0.5,3,1.1,4,1.9c1.1,0.7,2,1.5,2.8,2.2c0.8,0.7,1.4,1.3,1.8,1.8l0.6,0.8
	l-1.8,1.5c-0.1-0.2-0.3-0.4-0.5-0.7c-0.2-0.3-0.7-0.8-1.5-1.6c-0.8-0.7-1.6-1.4-2.5-2c-0.9-0.6-2.1-1.1-3.5-1.6
	c-1.4-0.5-3-0.7-4.5-0.7c-4.3,0-7.9,1.5-10.8,4.5c-2.9,3-4.4,6.6-4.4,11s1.5,8,4.4,11c3,3,6.6,4.5,10.8,4.5c1.6,0,3.1-0.2,4.6-0.7
	c1.4-0.5,2.6-1,3.6-1.6c1-0.6,1.8-1.3,2.5-1.9s1.2-1.2,1.6-1.6l0.5-0.7l1.8,1.5c-0.1,0.2-0.3,0.5-0.6,0.8c-0.3,0.3-0.9,0.9-1.8,1.8
	c-0.9,0.9-1.9,1.6-2.9,2.3c-1,0.7-2.4,1.3-4.1,1.8c-1.7,0.5-3.4,0.8-5.1,0.8C278.6,262.5,274.4,260.7,270.9,257.2z M328.5,227
	l11.3,20l11.3-20h3l-13,22.8V262h-2.5v-12.3l-13-22.8H328.5z" fill="white"/>
</svg>
