<?xml version="1.0" encoding="UTF-8"?>
<!-- Generated by Pixelmator Pro 3.3.2 -->
<svg width="511" height="381" viewBox="0 0 511 381" xmlns="http://www.w3.org/2000/svg" xmlns:xlink="http://www.w3.org/1999/xlink">
    <path id="MMOX" fill="#000000" fill-rule="evenodd" stroke="none" d="M 335.21875 378.783203 C 324.240845 378.783203 314.729614 377.011688 306.685547 373.46875 C 298.64151 369.925812 292.350708 364.53717 287.8125 357.302734 C 283.274261 350.068298 280.788208 341.051605 280.357422 330.251953 C 280.238586 325.201233 280.179688 320.098083 280.179688 314.943359 C 280.179688 309.788635 280.238586 304.611389 280.357422 299.412109 C 280.788208 288.731293 283.300415 279.755951 287.890625 272.484375 C 292.480865 265.212799 298.826233 259.719635 306.929688 256.005859 C 315.033142 252.292084 324.463654 250.435547 335.21875 250.435547 C 345.973846 250.435547 355.402374 252.292084 363.505859 256.005859 C 371.609314 259.719635 377.985138 265.212799 382.634766 272.484375 C 387.284424 279.755951 389.766174 288.731293 390.078125 299.412109 C 390.315796 304.611389 390.433594 309.788635 390.433594 314.943359 C 390.433594 320.098083 390.315796 325.201233 390.078125 330.251953 C 389.691895 341.051605 387.218719 350.068298 382.658203 357.302734 C 378.097687 364.53717 371.794037 369.925812 363.75 373.46875 C 355.705963 377.011688 346.196686 378.783203 335.21875 378.783203 Z M 390.099609 377 C 389.074615 377 388.187683 376.625183 387.4375 375.875 C 386.687317 375.124817 386.3125 374.237885 386.3125 373.212891 C 386.3125 372.886078 386.364746 372.550659 386.46875 372.208984 C 386.572723 371.86731 386.720947 371.503418 386.914063 371.117188 L 425.884766 313.316406 L 389.855469 258.099609 C 389.454376 257.386566 389.253906 256.689209 389.253906 256.005859 C 389.253906 254.980865 389.628723 254.093933 390.378906 253.34375 C 391.129089 252.593582 392.016022 252.216797 393.041016 252.216797 L 418.822266 252.216797 C 420.619751 252.216797 421.994568 252.667679 422.945313 253.566406 C 423.896027 254.465149 424.593414 255.277954 425.039063 256.005859 L 446.273438 288.316406 L 467.910156 256.005859 C 468.355804 255.277954 469.072662 254.465149 470.060547 253.566406 C 471.048401 252.667679 472.403748 252.216797 474.126953 252.216797 L 498.660156 252.216797 C 499.68515 252.216797 500.574036 252.593582 501.324219 253.34375 C 502.074402 254.093933 502.449219 254.980865 502.449219 256.005859 C 502.449219 256.763489 502.248749 257.460846 501.847656 258.099609 L 465.570313 313.115234 L 504.810547 371.117188 C 505.048218 371.503418 505.207367 371.86731 505.289063 372.208984 C 505.370758 372.550659 505.412109 372.886078 505.412109 373.212891 C 505.412109 374.237885 505.037292 375.124817 504.287109 375.875 C 503.536926 376.625183 502.649994 377 501.625 377 L 474.951172 377 C 473.227966 377 471.87265 376.557709 470.884766 375.673828 C 469.896912 374.789948 469.217102 374.044617 468.845703 373.435547 L 445.181641 339.185547 L 421.964844 373.435547 C 421.593475 374.044617 420.931213 374.789948 419.980469 375.673828 C 419.029755 376.557709 417.65683 377 415.859375 377 L 390.099609 377 Z M 335.21875 353.046875 C 341.502472 353.046875 346.623138 351.164215 350.582031 347.398438 C 354.540924 343.63266 356.645905 337.581757 356.898438 329.248047 C 357.136108 324.048767 357.255859 319.132843 357.255859 314.498047 C 357.255859 309.863251 357.136108 305.01947 356.898438 299.96875 C 356.735016 294.412964 355.710815 289.876129 353.824219 286.355469 C 351.937622 282.834808 349.407898 280.257111 346.236328 278.623047 C 343.064758 276.988983 339.393036 276.171875 335.21875 276.171875 C 331.16333 276.171875 327.530975 276.988983 324.322266 278.623047 C 321.113556 280.257111 318.566284 282.834808 316.679688 286.355469 C 314.793091 289.876129 313.745087 294.412964 313.537109 299.96875 C 313.418274 305.01947 313.359375 309.863251 313.359375 314.498047 C 313.359375 319.132843 313.418274 324.048767 313.537109 329.248047 C 313.863922 337.581757 315.999329 343.63266 319.943359 347.398438 C 323.88739 351.164215 328.979614 353.046875 335.21875 353.046875 Z M 150.116837 377 C 148.854156 377 147.780884 376.569214 146.897003 375.707611 C 146.013123 374.846008 145.571198 373.783905 145.571198 372.52121 L 145.571198 256.763367 C 145.571198 255.456116 146.013123 254.371704 146.897003 253.510117 C 147.780884 252.648514 148.854156 252.217728 150.116837 252.217728 L 169.391235 252.217728 C 171.322403 252.217728 172.770752 252.73764 173.736343 253.777496 C 174.70192 254.817352 175.31839 255.589813 175.585785 256.094879 L 206.915054 312.380615 L 238.311157 256.094879 C 238.623123 255.589813 239.250732 254.817352 240.194046 253.777496 C 241.137344 252.73764 242.574554 252.217728 244.505707 252.217728 L 263.713257 252.217728 C 265.020508 252.217728 266.104919 252.648514 266.966522 253.510117 C 267.828125 254.371704 268.258911 255.456116 268.258911 256.763367 L 268.258911 372.52121 C 268.258911 373.783905 267.828125 374.846008 266.966522 375.707611 C 266.104919 376.569214 265.020508 377 263.713257 377 L 242.344299 377 C 241.081619 377 240.019501 376.569214 239.157898 375.707611 C 238.29631 374.846008 237.865509 373.783905 237.865509 372.52121 L 237.865509 305.762695 L 217.74437 342.929993 C 217.194733 343.969849 216.437134 344.91684 215.471558 345.770996 C 214.505966 346.625183 213.198746 347.052246 211.54982 347.052246 L 202.280289 347.052246 C 200.631363 347.052246 199.335281 346.625183 198.391983 345.770996 C 197.448685 344.91684 196.679932 343.969849 196.085739 342.929993 L 175.964584 305.762695 L 175.964584 372.52121 C 175.964584 373.783905 175.533798 374.846008 174.672211 375.707611 C 173.810608 376.569214 172.748489 377 171.485794 377 Z M 11.519382 377 C 10.256698 377 9.183433 376.569214 8.299554 375.707611 C 7.415675 374.846008 6.973742 373.783905 6.973742 372.52121 L 6.973742 256.763367 C 6.973742 255.456116 7.415675 254.371704 8.299554 253.510117 C 9.183433 252.648514 10.256698 252.217728 11.519382 252.217728 L 30.793787 252.217728 C 32.724949 252.217728 34.173302 252.73764 35.138885 253.777496 C 36.104465 254.817352 36.720943 255.589813 36.988335 256.094879 L 68.317596 312.380615 L 99.713707 256.094879 C 100.025665 255.589813 100.65329 254.817352 101.596588 253.777496 C 102.539886 252.73764 103.977097 252.217728 105.908257 252.217728 L 125.115814 252.217728 C 126.423065 252.217728 127.507469 252.648514 128.369064 253.510117 C 129.230667 254.371704 129.661453 255.456116 129.661453 256.763367 L 129.661453 372.52121 C 129.661453 373.783905 129.230667 374.846008 128.369064 375.707611 C 127.507469 376.569214 126.423065 377 125.115814 377 L 103.746849 377 C 102.484169 377 101.422043 376.569214 100.560448 375.707611 C 99.698853 374.846008 99.268059 373.783905 99.268059 372.52121 L 99.268059 305.762695 L 79.146919 342.929993 C 78.597275 343.969849 77.839676 344.91684 76.8741 345.770996 C 75.908516 346.625183 74.601288 347.052246 72.95237 347.052246 L 63.682827 347.052246 C 62.033913 347.052246 60.737823 346.625183 59.794525 345.770996 C 58.851223 344.91684 58.082485 343.969849 57.488281 342.929993 L 37.367138 305.762695 L 37.367138 372.52121 C 37.367138 373.783905 36.936348 374.846008 36.074749 375.707611 C 35.213154 376.569214 34.151031 377 32.888348 377 Z"/>
    <path id="Shape-copy-2" fill="#db0c0c" fill-rule="evenodd" stroke="none" d="M 156.346161 34.175293 C 165.083649 27.861084 175.307312 20.650391 184.702484 14.077881 C 194.097656 7.505127 202.434906 2.120361 203.229767 2.111084 C 204.024628 2.102051 206.35318 3.247559 208.404388 4.656982 C 210.455627 6.066162 218.875885 12.014404 227.11615 17.875244 C 235.356384 23.736084 242.88974 29.040039 243.856964 29.661621 C 245.612274 30.789795 245.651825 30.76709 265.380432 17.332031 C 276.25116 9.928955 285.997681 3.446289 287.039368 2.925781 C 288.778748 2.056885 289.203125 2.137695 292.239685 3.91626 C 294.058167 4.981201 303.813904 11.653809 313.919067 18.744141 C 324.024231 25.834229 333.139038 32.452393 334.174255 33.451172 C 336.056458 35.266602 336.056458 35.266602 335.882507 106.312012 L 335.708435 177.357178 L 315.551514 191.563721 C 304.46521 199.377197 294.101685 206.427002 292.521423 207.229736 C 289.648132 208.689209 289.648132 208.689209 286.371826 206.651855 C 284.569824 205.53125 275.321045 199.141846 265.818909 192.453125 C 256.316833 185.764404 247.963654 180.140381 247.256409 179.955322 C 246.375702 179.725098 241.269501 182.929932 231.052032 190.126221 C 222.846863 195.905029 213.827484 202.212891 211.008942 204.143311 C 208.190399 206.073975 205.269348 207.827881 204.517761 208.04126 C 203.766113 208.254395 202.346436 208.01123 201.362885 207.500488 C 200.379303 206.989746 190.232513 200.03833 178.814453 192.05249 C 167.396393 184.066895 157.670013 177.050293 157.200256 176.460449 C 156.529419 175.61792 156.346161 160.239014 156.346161 104.781494 L 156.346161 34.175293 Z M 198.709808 128.585449 C 173.798065 111.310791 166.264862 106.193115 165.897247 106.067871 C 165.467651 105.921387 165.228851 117.659912 165.228851 138.924072 L 165.228851 172.008301 L 175.944977 179.465576 C 181.838867 183.567383 189.241913 188.691162 192.39621 190.852051 C 195.550476 193.012939 198.261444 194.781006 198.420532 194.781006 C 198.579651 194.781006 198.709808 179.886963 198.709808 161.68335 L 198.709808 128.585449 Z M 284.215088 194.781006 C 284.538818 194.781006 284.803711 180.031738 284.803711 162.004883 C 284.803711 129.22876 284.803711 129.22876 281.216492 126.5896 C 279.243469 125.138184 272.076416 120.067871 265.289703 115.32251 C 258.50296 110.577148 252.430237 106.494873 251.7948 106.250977 C 250.719696 105.838379 250.640167 108.078613 250.649933 138.507568 C 250.65567 156.492676 250.886261 171.53833 251.162415 171.942383 C 251.438477 172.346436 256.715607 176.189941 262.889374 180.483398 C 269.06308 184.776855 276.254578 189.750244 278.870392 191.5354 C 281.486206 193.320557 283.891296 194.781006 284.215088 194.781006 Z M 203.494568 120.729004 C 204.059235 120.61377 211.131226 115.807129 219.210114 110.047607 C 227.289001 104.28833 236.333893 97.908936 239.309845 95.871582 C 243.297272 93.141602 245.196808 92.236816 246.530487 92.432617 C 247.525879 92.578613 257.214264 98.975098 268.060211 106.646973 C 278.906219 114.318848 288.281616 120.595703 288.89447 120.595703 C 289.507324 120.595703 296.74707 115.84082 304.982727 110.029297 C 313.218445 104.217529 320.733643 98.770264 321.683044 97.923828 C 323.409302 96.38501 323.409302 96.38501 321.414673 94.849121 C 320.317627 94.004395 312.784424 88.631348 304.674194 82.90918 C 296.563965 77.187012 288.77533 71.558105 287.366028 70.400635 C 285.464722 68.839111 284.803711 67.778564 284.803711 66.289795 C 284.803711 64.5896 285.559937 63.727051 289.757507 60.639404 C 292.482117 58.63501 300.387024 53.02832 307.323975 48.179688 C 314.260986 43.331299 320.718018 38.668945 321.672974 37.819092 C 323.409302 36.273926 323.409302 36.273926 321.701111 34.904053 C 320.761597 34.150635 313.17572 28.766357 304.843628 22.938965 C 296.511597 17.111572 289.331421 12.343994 288.887695 12.343994 C 288.44397 12.343994 283.34375 15.568604 277.553772 19.509766 C 271.763885 23.451172 262.647675 29.677734 257.295654 33.346436 C 250.302551 38.140137 246.987946 40.016846 245.514832 40.016846 C 243.951782 40.016846 238.766144 36.711182 223.679901 26.0979 C 206.943878 14.323975 203.667267 12.270752 202.418365 12.773926 C 201.606293 13.101074 193.682404 18.442139 184.809692 24.643066 C 175.93692 30.84375 168.670197 36.104492 168.661346 36.33374 C 168.652527 36.562744 177.254059 42.810059 187.775909 50.216797 C 202.386871 60.501953 207.011383 64.101074 207.350189 65.450928 C 207.594147 66.422852 207.494385 67.70874 207.128479 68.308105 C 206.762573 68.907715 203.160919 71.752441 199.124756 74.629639 C 195.088623 77.506836 186.59137 83.502686 180.242004 87.953857 C 173.892639 92.404541 168.764526 96.282227 168.846191 96.570313 C 168.927887 96.858643 176.526154 102.459473 185.731262 109.016602 C 194.936432 115.573975 202.929901 120.844482 203.494568 120.729004 Z M 165.228851 87.584473 C 177.673187 79.082275 184.186188 74.529053 187.730804 71.980957 C 191.275421 69.433105 194.281464 67.016357 194.41095 66.610596 C 194.540436 66.205078 191.640289 63.726318 187.966187 61.102783 C 184.292114 58.479248 177.860321 53.968262 173.673309 51.078857 C 169.486298 48.189209 165.873444 45.824951 165.644714 45.824951 C 165.415985 45.824951 165.228851 55.220947 165.228851 66.704834 L 165.228851 87.584473 Z"/>
</svg>
