<svg id="payment" xmlns="http://www.w3.org/2000/svg" width="55.424" height="55.424"
	viewBox="0 0 55.424 55.424">
	<path id="Контур_176" data-name="Контур 176"
		d="M52.057,272.351a4.893,4.893,0,0,0-5.527,1.684l-6.047,7.908c0-.043,0-.086,0-.129a5.419,5.419,0,0,0-5.413-5.413H24.331a11.036,11.036,0,0,0-12.207-1.391v-.232a1.624,1.624,0,0,0-1.624-1.624H1.624A1.624,1.624,0,0,0,0,274.777v21.65a1.624,1.624,0,0,0,1.624,1.624H10.5a1.624,1.624,0,0,0,1.624-1.624V294.8H38.739a11.32,11.32,0,0,0,9.561-5.22l6.337-9.857a4.947,4.947,0,0,0,.787-2.681,4.892,4.892,0,0,0-3.367-4.7ZM8.877,294.8H3.248V276.4H8.877ZM51.905,277.97l-6.337,9.857a8.085,8.085,0,0,1-6.829,3.729H12.124v-12.7l.543-.388a7.783,7.783,0,0,1,9.914.723,1.624,1.624,0,0,0,1.125.453H35.073a2.165,2.165,0,0,1,0,4.33H23.49a1.624,1.624,0,1,0,0,3.248H36.518a8.166,8.166,0,0,0,6.449-3.187l6.142-8.032a1.709,1.709,0,0,1,3.067,1.038,1.705,1.705,0,0,1-.272.924Z"
		transform="translate(0 -242.627)" fill="#056cf2"></path>
	<path id="Контур_177" data-name="Контур 177"
		d="M258.018,59.583a5.242,5.242,0,0,0,2.626.984v.671a1.083,1.083,0,0,0,2.165,0v-.775a4.4,4.4,0,0,0,3.206-3.508,3.874,3.874,0,0,0-2.634-4.383c-.188-.067-.38-.136-.573-.207v-3.5a1.488,1.488,0,0,1,.527.313,1.083,1.083,0,0,0,1.626-1.429,3.759,3.759,0,0,0-2.154-1.112v-.555a1.083,1.083,0,0,0-2.165,0v.674c-.067.018-.134.036-.2.057a3.647,3.647,0,0,0-2.5,2.859,3.239,3.239,0,0,0,1.07,3.19,7.992,7.992,0,0,0,1.632.954v4.572a3.278,3.278,0,0,1-1.44-.617,1.082,1.082,0,1,0-1.185,1.812Zm4.791-4.912A1.675,1.675,0,0,1,263.88,56.6a2.237,2.237,0,0,1-1.071,1.552Zm-2.461-3.512a1.121,1.121,0,0,1-.279-1.086,1.613,1.613,0,0,1,.575-.97v2.264C260.537,51.3,260.438,51.229,260.348,51.159Z"
		transform="translate(-229.651 -40.129)" fill="#056cf2"></path>
	<path id="Контур_178" data-name="Контур 178"
		d="M185.531,27.063A13.531,13.531,0,1,0,172,13.531,13.547,13.547,0,0,0,185.531,27.063Zm0-23.815a10.284,10.284,0,1,1-10.284,10.284A10.3,10.3,0,0,1,185.531,3.248Z"
		transform="translate(-153.381)" fill="#056cf2"></path>
</svg>