<svg class="results__icon" xmlns="http://www.w3.org/2000/svg" width="51.515" height="43.08"
	viewBox="0 0 51.515 43.08">
	<path id="Контур_20" data-name="Контур 20"
		d="M752.944,1937.481a16.069,16.069,0,0,0,8.3-6.077c4.081-6.082,2.2-11.457,5.985-11.457,2.242,0,3.318,2.927,3.272,6.295a32.1,32.1,0,0,1-1.254,7.635,1.21,1.21,0,0,0,1.254,1.594h6.462c2.718,0,4.135.144,5.019,1.578,1.53,2.483.14,3.958.388,4.942.482,1.885,1.689,1.834,1.689,4.11,0,1.326-1.25,2.341-1.688,3.471-.381.984.39,2.524.506,3.585.268,2.449-2.366,3.067-2.641,3.929-.324,1.015.2,1.489-.288,3.034-.7,2.208-3.159,2.909-5.2,2.909h-9.708c-6.908,0-6.722-4.418-12.1-4.45Zm-4.266-3.542H732.546v26.791h16.132Zm-2.263,21.885a2.3,2.3,0,1,1-2.3-2.3A2.3,2.3,0,0,1,746.415,1955.824Z"
		transform="translate(-732.546 -1919.947)" fill="#056cf2"></path>
</svg>