<svg class="results__icon" xmlns="http://www.w3.org/2000/svg" width="43.081" height="43.081"
	viewBox="0 0 43.081 43.081">
	<path id="Контур_126" data-name="Контур 126"
		d="M1266.529,1778.093l-8.054,8.054a7.384,7.384,0,0,1,1.424,3.772l3.721.117a5,5,0,0,1,8.323-2.365l1.806-1.316a2.842,2.842,0,1,1,1.028,1.409l-1.806,1.316a4.99,4.99,0,0,1,.51,2.105l4.36.686a2.834,2.834,0,1,1-.268,1.722l-4.36-.686a4.971,4.971,0,0,1-1.127,1.846l1.318,1.807a2.834,2.834,0,1,1-1.407,1.026l-1.319-1.808a5.015,5.015,0,0,1-7.124-3.566l-3.787-.119a7.34,7.34,0,0,1-2,3.7,7.411,7.411,0,0,1-10.48-10.48,7.344,7.344,0,0,1,3.7-2l-.119-3.786a5.016,5.016,0,0,1-3.566-7.124l-1.808-1.319a2.833,2.833,0,1,1,1.026-1.407l1.808,1.318a4.969,4.969,0,0,1,1.847-1.127l-.686-4.36a2.827,2.827,0,1,1,1.721-.268l.686,4.36a4.985,4.985,0,0,1,2.1.51l1.317-1.806a2.838,2.838,0,1,1,1.409,1.028l-1.316,1.806a5,5,0,0,1-2.365,8.323l.118,3.721a7.39,7.39,0,0,1,3.772,1.424l8.054-8.054a5.021,5.021,0,0,1,.681-6.229,4.969,4.969,0,0,1,2.67-1.384l0-4.419a2.838,2.838,0,1,1,1.742,0l0,4.418a4.985,4.985,0,0,1,2,.827l3.272-3.272a2.833,2.833,0,1,1,1.233,1.233l-3.272,3.272a4.988,4.988,0,0,1,.827,2l4.418,0a2.8,2.8,0,0,1,.688-1.131,2.842,2.842,0,1,1-.686,2.873l-4.419,0a4.967,4.967,0,0,1-1.385,2.67A5.022,5.022,0,0,1,1266.529,1778.093Zm-9.656,12.422a4.359,4.359,0,1,0-4.36,4.359A4.359,4.359,0,0,0,1256.873,1790.515Zm14.247.756a2.655,2.655,0,1,0-2.655,2.656A2.656,2.656,0,0,0,1271.12,1791.271Zm.738-17.407a2.656,2.656,0,1,0-2.656,2.655A2.656,2.656,0,0,0,1271.858,1773.864Zm-17.4.744a2.655,2.655,0,1,0-2.655,2.656A2.656,2.656,0,0,0,1254.455,1774.608Z"
		transform="translate(-1240.999 -1759)" fill="#056cf2" fill-rule="evenodd"></path>
</svg>