<svg class="results__icon" id="Сгруппировать_226" data-name="Сгруппировать 226"
	xmlns="http://www.w3.org/2000/svg" width="31.508" height="43.08" viewBox="0 0 31.508 43.08">
	<path id="Контур_26" data-name="Контур 26"
		d="M1362.8,239.163c.989.012,1.972.042,2.932.09a3.686,3.686,0,0,1-.807-2.056c-.81-.031-1.643-.05-2.493-.057a3.686,3.686,0,0,1,.386,1.648C1362.822,238.914,1362.816,239.039,1362.8,239.163Z"
		transform="translate(-1346.104 -230.048)" fill="#056cf2"></path>
	<path id="Контур_27" data-name="Контур 27"
		d="M1296.893,242.047c0-1.3-1.967-2.316-5.147-2.9l-.268-.048a3.694,3.694,0,0,1-.957,1.651c-.069.069-.141.135-.214.2q.557.083,1.077.178a13.407,13.407,0,0,1,3.467.873l-.217.212a22.174,22.174,0,0,1-3.249.752,65.65,65.65,0,0,1-12.969.724h-.013c-.1,0-.194,0-.289-.011a52.909,52.909,0,0,1-7.217-.714,22.172,22.172,0,0,1-3.25-.752l-.217-.212a13.407,13.407,0,0,1,3.467-.873c1.153-.211,2.461-.379,3.859-.5a3.731,3.731,0,0,1-.055-.637,3.691,3.691,0,0,1,.276-1.4c-1.659.139-3.162.331-4.443.565-3.18.582-5.147,1.594-5.147,2.9a1.26,1.26,0,0,0,.015.2,1,1,0,0,0,.292.879l3.193,3.114,7.821,7.626c.038.077.374,3.323.64,5.653.14,1.222.26,2.192.309,2.321a6.732,6.732,0,1,0,6.971,0c.042-.12.159-1.073.3-2.281.267-2.338.614-5.631.646-5.7l8.031-7.831,2.983-2.909a1.006,1.006,0,0,0,.293-.879A1.275,1.275,0,0,0,1296.893,242.047Zm-14.72,28.85c-.484.1.069.813-.453.867-.609.063-.661.1-.72-.466-.055-.523-.8.045-1.855-.728a2.059,2.059,0,0,1-.794-1.276.284.284,0,0,1,.248-.344l1.178-.123c.383-.04.263.434.55.724.364.368,1.653.15,1.959-.115a.6.6,0,0,0-.061-.915c-.705-.469-2.343-.183-3.4-.916-1.2-.832-.989-3.08,1.223-3.493.431-.08.022-.629.479-.677.363-.038.69-.146.732.258.053.5.721-.017,1.685.668.54.384,1.074,1.409.5,1.469l-1.088.113c-.342.035-.261-.332-.522-.583a2.159,2.159,0,0,0-1.875.105.567.567,0,0,0,.075.862c.81.505,3.877-.057,4.116,2.227C1284.291,269.892,1283.456,270.629,1282.172,270.9Zm-3.159-14.635-.2-1.74a15.62,15.62,0,0,0,4.651,0l-.2,1.742A6.683,6.683,0,0,1,1279.013,256.262Zm4,2.156-.3,2.635a6.767,6.767,0,0,0-3.148,0l-.3-2.635A8.464,8.464,0,0,0,1283.016,258.418Zm1.256-6.1a13.783,13.783,0,0,1-4.824.256,13.65,13.65,0,0,1-1.445-.259l-2.34-2.282a43.331,43.331,0,0,0,10.952,0Zm4.9-4.78a31.968,31.968,0,0,1-3.662.6,42.423,42.423,0,0,1-8.691.006,32.124,32.124,0,0,1-3.718-.6l-2.676-2.61a69.567,69.567,0,0,0,21.423,0Z"
		transform="translate(-1265.385 -231.249)" fill="#056cf2"></path>
	<g id="Сгруппировать_18" data-name="Сгруппировать 18" transform="translate(0.686 0)">
		<path id="Контур_28" data-name="Контур 28"
			d="M1422.019,208a2.019,2.019,0,1,0,2.019,2.019A2.019,2.019,0,0,0,1422.019,208Z"
			transform="translate(-1394.666 -205.813)" fill="#056cf2"></path>
		<ellipse id="Эллипс_1" data-name="Эллипс 1" cx="2.019" cy="2.019" rx="2.019" ry="2.019"
			transform="translate(19.813 4.866)" fill="#056cf2"></ellipse>
		<ellipse id="Эллипс_2" data-name="Эллипс 2" cx="2.019" cy="2.019" rx="2.019" ry="2.019"
			transform="translate(16.246)" fill="#056cf2"></ellipse>
		<ellipse id="Эллипс_3" data-name="Эллипс 3" cx="2.019" cy="2.019" rx="2.019" ry="2.019"
			transform="translate(0 2.027)" fill="#056cf2"></ellipse>
		<ellipse id="Эллипс_4" data-name="Эллипс 4" cx="1.346" cy="1.346" rx="1.346" ry="1.346"
			transform="translate(7.347 0.612)" fill="#056cf2"></ellipse>
		<ellipse id="Эллипс_5" data-name="Эллипс 5" cx="2.019" cy="2.019" rx="2.019" ry="2.019"
			transform="translate(10.311 6.72)" fill="#056cf2"></ellipse>
	</g>
</svg>