<svg class="results__icon" id="Сгруппировать_227" data-name="Сгруппировать 227"
	xmlns="http://www.w3.org/2000/svg" width="31.557" height="43.08" viewBox="0 0 31.557 43.08">
	<path id="Контур_29" data-name="Контур 29"
		d="M777.689,350.751c-1.2-2.439-4.578-2.725-7-3.664a65.052,65.052,0,0,1-3.7,11.34l-1.342-6.924.334-1.753-1.41-.791-1.41.791.334,1.753-1.343,6.924a65.072,65.072,0,0,1-3.7-11.34c-2.419.939-5.792,1.225-7,3.664-1.241,2.5-2.462,8.043-2.663,12.48a1.219,1.219,0,0,0,1.217,1.274h29.12a1.219,1.219,0,0,0,1.217-1.274C780.151,358.794,778.93,353.251,777.689,350.751Z"
		transform="translate(-748.797 -321.424)" fill="#056cf2"></path>
	<path id="Контур_30" data-name="Контур 30"
		d="M771.933,215.015,770.3,217.1l2.714,2.714,2.081-1.631a10.064,10.064,0,0,0,3.158,1.309l.318,2.624h3.838l.318-2.624a10.064,10.064,0,0,0,3.159-1.309l2.081,1.631,2.714-2.714-1.631-2.081a10.062,10.062,0,0,0,1.309-3.159l2.624-.318V207.7l-2.624-.318a10.062,10.062,0,0,0-1.309-3.158l1.631-2.081-2.714-2.714-2.081,1.631a10.065,10.065,0,0,0-3.159-1.309l-.318-2.624h-3.838l-.318,2.624a10.064,10.064,0,0,0-3.158,1.309l-2.081-1.631-2.714,2.714,1.631,2.081a10.06,10.06,0,0,0-1.309,3.158L768,207.7v3.838l2.624.318A10.057,10.057,0,0,0,771.933,215.015Zm3.825-10.129a6.7,6.7,0,1,1-1.96,4.734A6.674,6.674,0,0,1,775.759,204.886Z"
		transform="translate(-764.714 -197.127)" fill="#056cf2"></path>
</svg>