<svg xmlns="http://www.w3.org/2000/svg" width="59.438" height="64.046" viewBox="0 0 59.438 64.046">
    <g id="Сгруппировать_6873" data-name="Сгруппировать 6873" transform="translate(-1069.5 -547.988)">
        <g id="Сгруппировать_6876" data-name="Сгруппировать 6876" transform="translate(1076.505 559.016)">
            <g id="Сгруппировать_6873-2" data-name="Сгруппировать 6873" transform="translate(22.869)">
                <path id="Контур_13623" data-name="Контур 13623" d="M1152.73,596.4l-1.949-.294c.093-.618.159-1.247.195-1.87l1.968.115C1152.9,595.032,1152.832,595.722,1152.73,596.4ZM1151,592.354c-.02-.625-.068-1.255-.145-1.874l1.956-.241c.084.678.137,1.369.158,2.053Zm-.46-3.726c-.133-.608-.3-1.218-.484-1.814l1.879-.6c.207.654.386,1.324.531,1.99Zm-1.134-3.576c-.243-.576-.516-1.147-.809-1.7l1.738-.929c.321.6.62,1.227.886,1.858Zm-1.77-3.312c-.343-.521-.714-1.033-1.1-1.522l1.542-1.228c.427.536.833,1.1,1.208,1.667ZM1145.3,578.8c-.431-.45-.889-.888-1.36-1.3l1.3-1.484c.516.45,1.017.929,1.488,1.422Zm-2.831-2.472c-.5-.366-1.033-.714-1.571-1.036l1.009-1.692c.589.351,1.167.732,1.719,1.133Zm-3.229-1.926c-.562-.27-1.145-.518-1.73-.737l.689-1.847c.642.239,1.279.511,1.9.807Zm-3.521-1.315c-.6-.164-1.218-.3-1.834-.414l.347-1.94c.675.121,1.35.273,2.008.454Zm-3.7-.663c-.62-.055-1.253-.083-1.881-.083v-1.971c.685,0,1.377.031,2.054.09Z" transform="translate(-1130.137 -570.373)" fill="#FF0000"/>
            </g>
            <g id="Сгруппировать_6874" data-name="Сгруппировать 6874" transform="translate(0 17.963)">
                <path id="Контур_13624" data-name="Контур 13624" d="M1085.775,620.926c-.287-.624-.549-1.266-.776-1.91l1.858-.656c.208.586.445,1.172.707,1.74Zm-1.372-3.882c-.167-.664-.306-1.343-.411-2.018l1.947-.305c.1.617.223,1.237.376,1.841Zm-.637-4.066c-.031-.481-.047-.972-.047-1.461q0-.3.008-.6l1.97.055q-.007.272-.007.545c0,.446.014.9.043,1.334Zm2.065-3.883-1.957-.23c.08-.676.192-1.36.334-2.032l1.928.407C1086.006,607.854,1085.9,608.479,1085.831,609.1Z" transform="translate(-1083.719 -606.833)" fill="#FF0000"/>
            </g>
            <g id="Сгруппировать_6875" data-name="Сгруппировать 6875" transform="translate(10.497 40.049)">
                <path id="Контур_13625" data-name="Контур 13625" d="M1117.4,656.922c-.236,0-.47,0-.7-.011l.06-1.97c.632.019,1.279.01,1.882-.026l.118,1.967C1118.313,656.909,1117.858,656.922,1117.4,656.922Zm-2.756-.163c-.681-.081-1.365-.193-2.032-.334l.408-1.928c.609.129,1.234.232,1.857.306Zm-4.025-.85c-.653-.2-1.306-.434-1.94-.692l.746-1.824c.579.236,1.176.449,1.772.633Zm-3.807-1.556c-.606-.314-1.207-.661-1.784-1.029l1.061-1.661c.527.337,1.075.653,1.629.94Z" transform="translate(-1105.025 -651.663)" fill="#FF0000"/>
            </g>
        </g>
        <g id="Сгруппировать_6880" data-name="Сгруппировать 6880" transform="translate(1069.5 547.988)">
            <g id="Сгруппировать_6877" data-name="Сгруппировать 6877">
                <path id="Контур_13626" data-name="Контур 13626" d="M1085.083,578.884a15.449,15.449,0,1,1,15.583-15.449A15.534,15.534,0,0,1,1085.083,578.884Zm0-28.926a13.478,13.478,0,1,0,13.612,13.477A13.56,13.56,0,0,0,1085.083,549.959Z" transform="translate(-1069.5 -547.988)" fill="#FF0000"/>
            </g>
            <g id="Сгруппировать_6878" data-name="Сгруппировать 6878" transform="translate(10.635 9.227)">
                <path id="Контур_13627" data-name="Контур 13627" d="M1096.034,576.54a4.912,4.912,0,1,1,4.948-4.911A4.935,4.935,0,0,1,1096.034,576.54Zm0-7.853a2.941,2.941,0,1,0,2.977,2.942A2.963,2.963,0,0,0,1096.034,568.688Z" transform="translate(-1091.086 -566.717)" fill="#FF0000"/>
            </g>
            <g id="Сгруппировать_6879" data-name="Сгруппировать 6879" transform="translate(7.662 17.516)">
                <path id="Контур_13628" data-name="Контур 13628" d="M1092.973,592.493a11.111,11.111,0,0,1-7.607-3l-.313-.292v-.747a4.936,4.936,0,0,1,4.949-4.911h5.943a4.935,4.935,0,0,1,4.948,4.911v.747l-.313.292A11.112,11.112,0,0,1,1092.973,592.493Zm-5.947-4.159a9.175,9.175,0,0,0,11.894,0,2.964,2.964,0,0,0-2.975-2.821H1090A2.965,2.965,0,0,0,1087.026,588.334Z" transform="translate(-1085.053 -583.542)" fill="#FF0000"/>
            </g>
        </g>
        <g id="Сгруппировать_6884" data-name="Сгруппировать 6884" transform="translate(1099.32 582.67)">
            <g id="Сгруппировать_6881" data-name="Сгруппировать 6881">
                <path id="Контур_13629" data-name="Контур 13629" d="M1144.836,647.749a14.683,14.683,0,1,1,14.809-14.681A14.762,14.762,0,0,1,1144.836,647.749Zm0-27.393a12.712,12.712,0,1,0,12.839,12.712A12.79,12.79,0,0,0,1144.836,620.356Z" transform="translate(-1130.027 -618.385)" fill="#FF0000"/>
            </g>
            <g id="Сгруппировать_6882" data-name="Сгруппировать 6882" transform="translate(9.793 8.372)">
                <path id="Контур_13630" data-name="Контур 13630" d="M1154.921,645.338a4.98,4.98,0,1,1,5.018-4.98A5,5,0,0,1,1154.921,645.338Zm0-7.988a3.009,3.009,0,1,0,3.048,3.008A3.03,3.03,0,0,0,1154.921,637.35Z" transform="translate(-1149.905 -635.379)" fill="#FF0000"/>
            </g>
            <g id="Сгруппировать_6883" data-name="Сгруппировать 6883" transform="translate(6.77 16.804)">
                <path id="Контур_13631" data-name="Контур 13631" d="M1159.849,662.082h-1.971v-4.61a3.03,3.03,0,0,0-3.046-3.009h-6.047a3.031,3.031,0,0,0-3.046,3.009v4.61h-1.971v-4.61a5,5,0,0,1,5.017-4.979h6.047a5,5,0,0,1,5.016,4.979Z" transform="translate(-1143.768 -652.493)" fill="#FF0000"/>
            </g>
        </g>
        <g id="Сгруппировать_6887" data-name="Сгруппировать 6887" transform="translate(1087.332 581.634)">
            <g id="Сгруппировать_6885" data-name="Сгруппировать 6885" transform="translate(3.005)">
                <rect id="Прямоугольник_461" data-name="Прямоугольник 461" width="1.971" height="7.906" fill="#FF0000"/>
            </g>
            <g id="Сгруппировать_6886" data-name="Сгруппировать 6886" transform="translate(0 2.969)">
                <rect id="Прямоугольник_462" data-name="Прямоугольник 462" width="7.979" height="1.971" fill="#FF0000"/>
            </g>
        </g>
        <g id="Сгруппировать_6890" data-name="Сгруппировать 6890" transform="translate(1118.413 550.839)">
            <g id="Сгруппировать_6888" data-name="Сгруппировать 6888" transform="translate(3.633 0)">
                <rect id="Прямоугольник_463" data-name="Прямоугольник 463" width="1.971" height="9.155" fill="#FF0000"/>
            </g>
            <g id="Сгруппировать_6889" data-name="Сгруппировать 6889" transform="translate(0 3.593)">
                <rect id="Прямоугольник_464" data-name="Прямоугольник 464" width="9.239" height="1.971" fill="#FF0000"/>
            </g>
        </g>
        <g id="Сгруппировать_6891" data-name="Сгруппировать 6891" transform="translate(1076.266 588.973)">
            <path id="Контур_13632" data-name="Контур 13632" d="M1090.495,645.579a7.2,7.2,0,1,1,7.258-7.2A7.239,7.239,0,0,1,1090.495,645.579Zm0-12.431a5.231,5.231,0,1,0,5.287,5.23A5.266,5.266,0,0,0,1090.495,633.148Z" transform="translate(-1083.234 -631.177)" fill="#FF0000"/>
        </g>
    </g>
</svg>