<svg xmlns="http://www.w3.org/2000/svg" width="56.693" height="57.192" viewBox="0 0 56.693 57.192">
    <g id="Сгруппировать_6892" data-name="Сгруппировать 6892" transform="translate(-100.853 -945.997)">
        <g id="Сгруппировать_6896" data-name="Сгруппировать 6896" transform="translate(109.993 955.213)">
            <g id="Сгруппировать_6892-2" data-name="Сгруппировать 6892" transform="translate(0)">
                <path id="Контур_13633" data-name="Контур 13633" d="M141.018,1005.886a19.378,19.378,0,1,1,19.207-19.378A19.315,19.315,0,0,1,141.018,1005.886Zm0-37.01a17.634,17.634,0,1,0,17.463,17.633A17.568,17.568,0,0,0,141.018,968.875Z" transform="translate(-121.811 -967.131)" fill="#FF0000"/>
            </g>
            <g id="Сгруппировать_6893" data-name="Сгруппировать 6893" transform="translate(7.728)">
                <path id="Контур_13634" data-name="Контур 13634" d="M151.01,1005.886c-6.437,0-11.479-8.512-11.479-19.378s5.042-19.377,11.479-19.377,11.474,8.511,11.474,19.377S157.444,1005.886,151.01,1005.886Zm0-37.01c-5.367,0-9.735,7.91-9.735,17.633s4.367,17.633,9.735,17.633,9.729-7.91,9.729-17.633S156.375,968.875,151.01,968.875Z" transform="translate(-139.531 -967.131)" fill="#FF0000"/>
            </g>
            <g id="Сгруппировать_6894" data-name="Сгруппировать 6894" transform="translate(18.334)">
                <path id="Контур_13635" data-name="Контур 13635" d="M164.725,1005.886h-.872V967.131h.872a19.378,19.378,0,0,1,0,38.755ZM165.6,968.9v35.222a17.642,17.642,0,0,0,0-35.222Z" transform="translate(-163.853 -967.131)" fill="#FF0000"/>
            </g>
            <g id="Сгруппировать_6895" data-name="Сгруппировать 6895" transform="translate(0 11.98)">
                <path id="Контур_13636" data-name="Контур 13636" d="M158.762,1009.394H123.268l-.212-.568a19.324,19.324,0,0,1,0-13.656l.212-.567h35.492l.212.566a19.27,19.27,0,0,1,0,13.659Zm-34.272-1.744h33.052a17.492,17.492,0,0,0,0-11.3H124.491a17.538,17.538,0,0,0,0,11.3Z" transform="translate(-121.811 -994.603)" fill="#FF0000"/>
            </g>
        </g>
        <g id="Сгруппировать_6897" data-name="Сгруппировать 6897" transform="translate(100.853 945.997)">
            <path id="Контур_13637" data-name="Контур 13637" d="M129.215,1003.189c-.6,0-1.206-.019-1.8-.057l.111-1.741c.555.035,1.123.053,1.687.053Zm.828-.012-.051-1.744c.562-.016,1.129-.051,1.685-.1l.161,1.736C131.245,1003.122,130.641,1003.159,130.043,1003.176Zm-4.415-.215c-.594-.076-1.192-.171-1.778-.284l.331-1.713c.549.106,1.109.2,1.666.267Zm8-.117-.273-1.723c.557-.088,1.115-.194,1.658-.316l.382,1.7C134.812,1002.637,134.217,1002.751,133.624,1002.845Zm-11.529-.565c-.578-.151-1.159-.323-1.726-.51l.548-1.656c.532.175,1.076.336,1.618.478Zm15.039-.222-.491-1.674c.54-.159,1.08-.336,1.6-.527l.6,1.639C138.285,1001.7,137.71,1001.888,137.134,1002.057Zm-18.457-.908c-.557-.225-1.112-.47-1.648-.728l.757-1.573c.5.242,1.022.472,1.545.683Zm21.834-.323-.7-1.6c.513-.225,1.025-.47,1.52-.726l.8,1.548C141.6,1000.326,141.058,1000.586,140.51,1000.827Zm-25.079-1.237c-.521-.293-1.039-.606-1.541-.931l.949-1.464c.471.305.957.6,1.446.874Zm28.271-.416-.9-1.494c.483-.291.96-.6,1.418-.916l.992,1.435C144.724,998.537,144.216,998.865,143.7,999.174Zm-31.29-1.542c-.476-.354-.95-.73-1.409-1.117l1.125-1.333c.431.364.877.718,1.324,1.05Zm34.245-.5-1.08-1.37c.438-.345.872-.711,1.291-1.087l1.165,1.3C147.588,996.372,147.124,996.762,146.657,997.13Zm-36.991-1.821c-.429-.411-.852-.843-1.257-1.284l1.283-1.181c.382.414.779.821,1.182,1.208Zm39.667-.581-1.245-1.222c.393-.4.779-.819,1.145-1.242l1.319,1.141C150.163,993.856,149.753,994.3,149.333,994.728Zm-42.1-2.064c-.375-.463-.74-.944-1.087-1.431l1.422-1.011c.325.458.669.911,1.02,1.344Zm44.452-.655-1.387-1.058c.338-.444.668-.906.981-1.375l1.451.968C152.4,991.043,152.048,991.536,151.687,992.009Zm-46.534-2.275c-.314-.507-.617-1.03-.9-1.555l1.537-.825c.264.493.548.984.844,1.461Zm48.53-.719-1.509-.876c.28-.483.549-.983.8-1.487l1.562.778C154.269,987.967,153.982,988.5,153.684,989.015Zm-50.227-2.445c-.249-.544-.484-1.1-.7-1.656l1.628-.625c.2.52.42,1.043.654,1.554Zm51.833-.776-1.607-.678c.218-.518.423-1.05.608-1.579l1.647.576C155.74,984.676,155.522,985.241,155.289,985.794Zm-53.121-2.577c-.178-.57-.341-1.153-.484-1.733l1.694-.416c.134.544.287,1.092.454,1.626Zm54.308-.819-1.679-.471c.151-.54.287-1.092.4-1.64l1.706.365C156.783,981.234,156.638,981.822,156.476,982.4Zm-55.166-2.672c-.106-.587-.194-1.185-.263-1.779l1.733-.2c.065.558.148,1.12.247,1.671Zm55.917-.844-1.725-.257c.083-.555.149-1.12.2-1.678l1.738.15C157.386,977.691,157.316,978.292,157.228,978.882ZM100.9,976.156c-.028-.521-.043-1.051-.043-1.575v-.223l1.744.015v.208c0,.492.014.991.04,1.481Zm56.641-.853-1.744-.043q.009-.338.008-.678,0-.508-.018-1.011l1.743-.065q.02.536.02,1.076Q157.546,974.943,157.537,975.3Zm-54.874-2.618-1.74-.12c.041-.6.1-1.2.179-1.789l1.73.229C102.758,971.558,102.7,972.124,102.663,972.684Zm53.006-.8c-.055-.558-.128-1.122-.218-1.675l1.722-.279c.1.588.173,1.188.232,1.782Zm-52.564-2.546L101.393,969c.115-.588.25-1.177.4-1.753l1.687.443C103.34,968.232,103.213,968.786,103.105,969.337Zm52.024-.787c-.124-.545-.267-1.095-.426-1.634l1.674-.492c.169.574.321,1.16.453,1.74Zm-51.167-2.478-1.655-.549c.187-.566.4-1.135.619-1.691l1.618.651C104.333,965.006,104.138,965.541,103.961,966.072Zm50.214-.76c-.191-.525-.4-1.051-.626-1.565l1.6-.7c.239.547.464,1.108.667,1.667Zm-48.951-2.377-1.574-.752c.257-.538.536-1.077.827-1.6l1.523.85C105.728,961.925,105.466,962.43,105.225,962.935Zm47.6-.711c-.257-.5-.533-1-.819-1.475l1.5-.893c.3.51.6,1.038.871,1.571Zm-45.955-2.24-1.467-.944c.321-.5.665-1,1.02-1.482l1.405,1.034C107.5,959.047,107.173,959.515,106.871,959.984Zm44.228-.657c-.316-.462-.651-.92-1-1.362l1.375-1.074c.368.471.725.959,1.061,1.451Zm-42.225-2.063-1.337-1.121c.385-.459.788-.91,1.2-1.342L110,956C109.614,956.409,109.235,956.833,108.874,957.264Zm40.148-.6c-.372-.419-.762-.832-1.16-1.227l1.229-1.237c.423.42.839.86,1.235,1.306Zm-37.821-1.85-1.186-1.279c.439-.407.9-.8,1.357-1.181l1.1,1.352C112.042,954.061,111.613,954.434,111.2,954.817Zm35.426-.528c-.423-.37-.863-.731-1.305-1.072l1.064-1.382c.471.363.939.747,1.39,1.141Zm-32.812-1.607-1.016-1.418c.484-.347.987-.684,1.494-1l.924,1.48C114.741,952.04,114.27,952.356,113.815,952.682Zm30.136-.452c-.468-.314-.949-.617-1.431-.9l.88-1.506c.514.3,1.026.622,1.525.957Zm-27.276-1.335-.828-1.535c.526-.284,1.067-.553,1.609-.8l.728,1.585C117.676,950.376,117.169,950.629,116.675,950.895Zm24.359-.368c-.5-.253-1.019-.491-1.533-.709l.68-1.607c.549.232,1.1.487,1.635.756Zm-21.3-1.038-.625-1.628c.558-.215,1.13-.414,1.7-.591l.52,1.665C120.8,949.1,120.261,949.286,119.737,949.488Zm18.188-.28c-.529-.184-1.07-.355-1.61-.5l.468-1.68c.576.16,1.154.342,1.717.539Zm-14.968-.726-.413-1.7c.582-.141,1.175-.265,1.762-.368l.3,1.718C124.058,948.234,123.5,948.351,122.957,948.483Zm11.718-.18c-.545-.115-1.1-.214-1.662-.294l.249-1.727c.595.086,1.191.191,1.772.314Zm-8.4-.4-.192-1.734c.59-.065,1.193-.112,1.792-.141l.083,1.743C127.4,947.793,126.832,947.838,126.279,947.9Zm5.057-.077c-.559-.044-1.126-.072-1.686-.081l.028-1.744c.6.01,1.2.039,1.8.086Z" transform="translate(-100.853 -945.997)" fill="#FF0000"/>
        </g>
    </g>
</svg>
