<svg version="1.1" id="Слой_1" xmlns="http://www.w3.org/2000/svg" xmlns:xlink="http://www.w3.org/1999/xlink" x="0px" y="0px"
	 viewBox="0 0 369.6 269.2" style="enable-background:new 0 0 369.6 269.2;" xml:space="preserve">
<path id="Контур_13258" d="M288,269.2c-20.1,0-36.7-4.6-49.8-13.9c-12.9-9.1-23-21.7-29-36.3
	c-6.3-15-9.4-31.7-9.4-50.2c0-24.4,5.4-48.5,15.9-70.6c10.3-22.1,24.4-42.3,41.6-59.6C274.5,21.6,293.1,8.7,313.3,0l56.3,41.6
	c-14.9,5.8-29,13.5-42,22.8c-12.3,8.8-23.5,18.9-33.4,30.2c-8.9,9.9-16.2,21.2-21.6,33.4l4.1,2.5c3.1-2.4,6.8-4,10.6-4.9
	c5.6-1.2,11.4-1.8,17.1-1.6c9.8,0,19.7,2.4,29.8,7.3c10.2,5,18.9,12.6,25.3,22c6.8,9.8,10.2,22.3,10.2,37.5
	c0,17.4-3.8,31.8-11.4,43.2c-7.5,11.3-17.9,20.3-30.2,26.1C315.5,266.2,301.8,269.3,288,269.2z M88.1,269.2
	c-20.1,0-36.7-4.6-49.8-13.9c-12.9-9.1-23-21.7-29-36.3c-6.3-15-9.4-31.7-9.4-50.2c0-24.4,5.4-48.5,15.9-70.6
	C26.2,76.2,40.3,56,57.5,38.7C74.6,21.6,93.3,8.7,113.4,0l56.3,41.6c-14.9,5.8-29,13.5-42,22.8c-12.3,8.8-23.5,18.9-33.4,30.2
	c-8.9,9.9-16.2,21.2-21.6,33.4l4.1,2.4c3.1-2.4,6.8-4,10.6-4.9c5.6-1.2,11.4-1.8,17.1-1.6c9.8,0,19.7,2.4,29.8,7.3
	c10.2,5,18.9,12.6,25.3,22c6.8,9.8,10.2,22.3,10.2,37.5c0,17.4-3.8,31.8-11.4,43.2c-7.5,11.3-17.9,20.3-30.2,26.1
	C115.6,266.2,101.9,269.3,88.1,269.2z" fill="rgba(255,255,255,0.1)"/>
</svg>
